G04 #@! TF.GenerationSoftware,KiCad,Pcbnew,(5.1.10)-1*
G04 #@! TF.CreationDate,2023-01-31T14:41:16+02:00*
G04 #@! TF.ProjectId,voltmeter,766f6c74-6d65-4746-9572-2e6b69636164,rev?*
G04 #@! TF.SameCoordinates,Original*
G04 #@! TF.FileFunction,Copper,L1,Top*
G04 #@! TF.FilePolarity,Positive*
%FSLAX46Y46*%
G04 Gerber Fmt 4.6, Leading zero omitted, Abs format (unit mm)*
G04 Created by KiCad (PCBNEW (5.1.10)-1) date 2023-01-31 14:41:16*
%MOMM*%
%LPD*%
G01*
G04 APERTURE LIST*
G04 #@! TA.AperFunction,Profile*
%ADD10C,0.050000*%
G04 #@! TD*
G04 #@! TA.AperFunction,ComponentPad*
%ADD11O,1.700000X1.700000*%
G04 #@! TD*
G04 #@! TA.AperFunction,ComponentPad*
%ADD12R,1.700000X1.700000*%
G04 #@! TD*
G04 #@! TA.AperFunction,ComponentPad*
%ADD13C,1.524000*%
G04 #@! TD*
G04 #@! TA.AperFunction,ViaPad*
%ADD14C,0.600000*%
G04 #@! TD*
G04 #@! TA.AperFunction,Conductor*
%ADD15C,0.254000*%
G04 #@! TD*
G04 #@! TA.AperFunction,Conductor*
%ADD16C,0.250000*%
G04 #@! TD*
G04 #@! TA.AperFunction,Conductor*
%ADD17C,0.100000*%
G04 #@! TD*
G04 APERTURE END LIST*
D10*
X52578000Y-78048000D02*
X52578000Y-86048000D01*
X50578000Y-86048000D02*
X50578000Y-92048000D01*
X52578000Y-86048000D02*
X50578000Y-86048000D01*
X52578000Y-92048000D02*
X50578000Y-92048000D01*
X52578000Y-92048000D02*
X52578000Y-100048000D01*
X93578000Y-92048000D02*
X93578000Y-100048000D01*
X95578000Y-92048000D02*
X93578000Y-92048000D01*
X95578000Y-86048000D02*
X93578000Y-86048000D01*
X95578000Y-86048000D02*
X95578000Y-92048000D01*
X52578000Y-100048000D02*
X93578000Y-100048000D01*
X93578000Y-78048000D02*
X93578000Y-86048000D01*
X52578000Y-78048000D02*
X93578000Y-78048000D01*
D11*
X92075000Y-92272000D03*
X92075000Y-89732000D03*
X92075000Y-87192000D03*
D12*
X92075000Y-84652000D03*
D11*
X53975000Y-79521200D03*
X53975000Y-82061200D03*
X53975000Y-84601200D03*
X53975000Y-87141200D03*
D12*
X53975000Y-89681200D03*
D13*
X77216000Y-98036380D03*
X74676000Y-98130360D03*
X72136000Y-98044000D03*
X69596000Y-98044000D03*
X67056000Y-98044000D03*
X79756000Y-90424000D03*
X77216000Y-90424000D03*
X74676000Y-90424000D03*
X67056000Y-90424000D03*
X69596000Y-90424000D03*
X72136000Y-90424000D03*
X77216000Y-87897380D03*
X74676000Y-87991360D03*
X72136000Y-87905000D03*
X69596000Y-87905000D03*
X67056000Y-87905000D03*
X79756000Y-80285000D03*
X77216000Y-80285000D03*
X74676000Y-80285000D03*
X67056000Y-80285000D03*
X69596000Y-80285000D03*
X72136000Y-80285000D03*
D14*
X89789000Y-96336000D03*
X62721639Y-99146361D03*
X86614000Y-80334000D03*
X81153000Y-81350000D03*
X67183000Y-82112000D03*
X67183000Y-86049000D03*
X63881000Y-93542000D03*
X92583000Y-78937000D03*
X88519000Y-78937000D03*
X92583000Y-82874000D03*
X55245000Y-93923000D03*
X55118000Y-91637000D03*
X61214000Y-87446000D03*
X78867000Y-99130000D03*
X85471000Y-99130000D03*
X62357000Y-96717000D03*
X83947000Y-86176000D03*
X89946735Y-93324521D03*
X83058000Y-92272000D03*
X82931000Y-93669000D03*
X74930000Y-86303000D03*
X90170000Y-94431000D03*
X87376000Y-96336000D03*
X76881020Y-94731010D03*
X84201000Y-96336000D03*
X77597008Y-96590000D03*
X79756000Y-83001000D03*
X89806479Y-89858999D03*
X79681755Y-85234245D03*
X83745755Y-89298245D03*
X86233000Y-96336000D03*
X76881020Y-95747010D03*
X87630000Y-89224000D03*
X80518000Y-84017000D03*
X76962000Y-93796000D03*
X87757000Y-97224992D03*
X89027000Y-97479000D03*
X87884000Y-88334998D03*
D15*
X90170000Y-96336000D02*
X89789000Y-96336000D01*
X92075000Y-94431000D02*
X90170000Y-96336000D01*
X92075000Y-92272000D02*
X92075000Y-94431000D01*
X58242200Y-79521200D02*
X53975000Y-79521200D01*
X60325000Y-81604000D02*
X58242200Y-79521200D01*
X60325000Y-96749722D02*
X60325000Y-81604000D01*
X62721639Y-99146361D02*
X60325000Y-96749722D01*
X80137000Y-78810000D02*
X83947000Y-82620000D01*
X65786000Y-78810000D02*
X80137000Y-78810000D01*
X83947000Y-82620000D02*
X83947000Y-86176000D01*
X62357000Y-82239000D02*
X65786000Y-78810000D01*
X62357000Y-96717000D02*
X62357000Y-82239000D01*
X84074000Y-84652000D02*
X83947000Y-84779000D01*
X92075000Y-84652000D02*
X84074000Y-84652000D01*
X73659999Y-94480379D02*
X77216000Y-98036380D01*
X73659999Y-89859001D02*
X73659999Y-94480379D01*
X74295000Y-89224000D02*
X73659999Y-89859001D01*
X75889380Y-89224000D02*
X74295000Y-89224000D01*
X77216000Y-87897380D02*
X75889380Y-89224000D01*
X73152000Y-89515360D02*
X74676000Y-87991360D01*
X73152000Y-96606360D02*
X73152000Y-89515360D01*
X74676000Y-98130360D02*
X73152000Y-96606360D01*
X70866000Y-89175000D02*
X72136000Y-87905000D01*
X70866000Y-96774000D02*
X70866000Y-89175000D01*
X72136000Y-98044000D02*
X70866000Y-96774000D01*
X68326000Y-89175000D02*
X69596000Y-87905000D01*
X68326000Y-96774000D02*
X68326000Y-89175000D01*
X69596000Y-98044000D02*
X68326000Y-96774000D01*
X65786000Y-89175000D02*
X67056000Y-87905000D01*
X65786000Y-96774000D02*
X65786000Y-89175000D01*
X67056000Y-98044000D02*
X65786000Y-96774000D01*
X86679203Y-93324521D02*
X89946735Y-93324521D01*
X75212682Y-81858000D02*
X86679203Y-93324521D01*
X73914000Y-81858000D02*
X75212682Y-81858000D01*
X73279000Y-79811659D02*
X73279000Y-81223000D01*
X72736340Y-79268999D02*
X73279000Y-79811659D01*
X68072001Y-79268999D02*
X72736340Y-79268999D01*
X73279000Y-81223000D02*
X73914000Y-81858000D01*
X67056000Y-80285000D02*
X68072001Y-79268999D01*
D16*
X69596000Y-89808590D02*
X69596000Y-90424000D01*
D15*
X69596000Y-89605000D02*
X69596000Y-90424000D01*
X70866000Y-88335000D02*
X69596000Y-89605000D01*
X70866000Y-84017000D02*
X70866000Y-88335000D01*
X69596000Y-82747000D02*
X70866000Y-84017000D01*
X69596000Y-80285000D02*
X69596000Y-82747000D01*
X72136000Y-83509000D02*
X72136000Y-80285000D01*
X73406000Y-84779000D02*
X72136000Y-83509000D01*
X73406000Y-88462000D02*
X73406000Y-84779000D01*
X72136000Y-89732000D02*
X73406000Y-88462000D01*
X72136000Y-90424000D02*
X72136000Y-89732000D01*
X79064000Y-92272000D02*
X77216000Y-90424000D01*
X83058000Y-92272000D02*
X79064000Y-92272000D01*
X77921000Y-93669000D02*
X74676000Y-90424000D01*
X82931000Y-93669000D02*
X77921000Y-93669000D01*
X74930000Y-86303000D02*
X78105000Y-86303000D01*
X78105000Y-86303000D02*
X85933001Y-94131001D01*
X85933001Y-94131001D02*
X89870001Y-94131001D01*
X89870001Y-94131001D02*
X90170000Y-94431000D01*
X86233000Y-95193000D02*
X87376000Y-96336000D01*
X77343010Y-95193000D02*
X86233000Y-95193000D01*
X76881020Y-94731010D02*
X77343010Y-95193000D01*
X83947000Y-96590000D02*
X84201000Y-96336000D01*
X77597008Y-96590000D02*
X83947000Y-96590000D01*
X79756000Y-84271000D02*
X85343999Y-89858999D01*
X79756000Y-83001000D02*
X79756000Y-84271000D01*
X85343999Y-89858999D02*
X89806479Y-89858999D01*
X79681755Y-85234245D02*
X79981754Y-85534244D01*
X79981754Y-85534244D02*
X83745755Y-89298245D01*
X85644010Y-95747010D02*
X86233000Y-96336000D01*
X76881020Y-95747010D02*
X85644010Y-95747010D01*
X80587078Y-84017000D02*
X80518000Y-84017000D01*
X85667078Y-89097000D02*
X80587078Y-84017000D01*
X87630000Y-89097000D02*
X85667078Y-89097000D01*
X76962000Y-93796000D02*
X77851000Y-94685000D01*
X77851000Y-94685000D02*
X87122000Y-94685000D01*
X87122000Y-94685000D02*
X88056999Y-95619999D01*
X88056999Y-95619999D02*
X88056999Y-96924993D01*
X88056999Y-96924993D02*
X87757000Y-97224992D01*
X90724001Y-89720079D02*
X89338920Y-88334998D01*
X89338920Y-88334998D02*
X87884000Y-88334998D01*
X90724002Y-94696922D02*
X90724001Y-89720079D01*
X90435922Y-94985002D02*
X90724002Y-94696922D01*
X90320076Y-94985002D02*
X90435922Y-94985002D01*
X89027000Y-96278078D02*
X90320076Y-94985002D01*
X89027000Y-97479000D02*
X89027000Y-96278078D01*
X92202000Y-92145000D02*
X92222000Y-92145000D01*
X92222000Y-92399000D01*
X92202000Y-92399000D01*
X92202000Y-93592814D01*
X92431891Y-93713481D01*
X92706252Y-93616157D01*
X92918000Y-93490025D01*
X92918001Y-99388000D01*
X77581733Y-99388000D01*
X77623490Y-99379694D01*
X77877727Y-99274385D01*
X78106535Y-99121500D01*
X78301120Y-98926915D01*
X78454005Y-98698107D01*
X78559314Y-98443870D01*
X78613000Y-98173972D01*
X78613000Y-97898788D01*
X78559314Y-97628890D01*
X78454005Y-97374653D01*
X78438869Y-97352000D01*
X83909577Y-97352000D01*
X83947000Y-97355686D01*
X83984423Y-97352000D01*
X83984426Y-97352000D01*
X84096378Y-97340974D01*
X84240015Y-97297402D01*
X84289410Y-97271000D01*
X84293089Y-97271000D01*
X84473729Y-97235068D01*
X84643889Y-97164586D01*
X84797028Y-97062262D01*
X84927262Y-96932028D01*
X85029586Y-96778889D01*
X85100068Y-96608729D01*
X85119904Y-96509010D01*
X85314096Y-96509010D01*
X85333932Y-96608729D01*
X85404414Y-96778889D01*
X85506738Y-96932028D01*
X85636972Y-97062262D01*
X85790111Y-97164586D01*
X85960271Y-97235068D01*
X86140911Y-97271000D01*
X86325089Y-97271000D01*
X86505729Y-97235068D01*
X86675889Y-97164586D01*
X86804500Y-97078651D01*
X86829472Y-97095337D01*
X86822000Y-97132903D01*
X86822000Y-97317081D01*
X86857932Y-97497721D01*
X86928414Y-97667881D01*
X87030738Y-97821020D01*
X87160972Y-97951254D01*
X87314111Y-98053578D01*
X87484271Y-98124060D01*
X87664911Y-98159992D01*
X87849089Y-98159992D01*
X88029729Y-98124060D01*
X88199889Y-98053578D01*
X88259702Y-98013613D01*
X88300738Y-98075028D01*
X88430972Y-98205262D01*
X88584111Y-98307586D01*
X88754271Y-98378068D01*
X88934911Y-98414000D01*
X89119089Y-98414000D01*
X89299729Y-98378068D01*
X89469889Y-98307586D01*
X89623028Y-98205262D01*
X89753262Y-98075028D01*
X89855586Y-97921889D01*
X89926068Y-97751729D01*
X89962000Y-97571089D01*
X89962000Y-97386911D01*
X89926068Y-97206271D01*
X89855586Y-97036111D01*
X89789000Y-96936458D01*
X89789000Y-96593708D01*
X90673482Y-95709226D01*
X90728937Y-95692404D01*
X90861314Y-95621647D01*
X90977344Y-95526424D01*
X91001207Y-95497347D01*
X91236349Y-95262204D01*
X91265424Y-95238343D01*
X91347444Y-95138401D01*
X91360647Y-95122314D01*
X91414372Y-95021801D01*
X91431404Y-94989936D01*
X91474976Y-94846299D01*
X91486002Y-94734347D01*
X91486002Y-94734345D01*
X91489688Y-94696922D01*
X91486002Y-94659499D01*
X91486002Y-93631146D01*
X91718109Y-93713481D01*
X91948000Y-93592814D01*
X91948000Y-92399000D01*
X91928000Y-92399000D01*
X91928000Y-92145000D01*
X91948000Y-92145000D01*
X91948000Y-92125000D01*
X92202000Y-92125000D01*
X92202000Y-92145000D01*
G04 #@! TA.AperFunction,Conductor*
D17*
G36*
X92202000Y-92145000D02*
G01*
X92222000Y-92145000D01*
X92222000Y-92399000D01*
X92202000Y-92399000D01*
X92202000Y-93592814D01*
X92431891Y-93713481D01*
X92706252Y-93616157D01*
X92918000Y-93490025D01*
X92918001Y-99388000D01*
X77581733Y-99388000D01*
X77623490Y-99379694D01*
X77877727Y-99274385D01*
X78106535Y-99121500D01*
X78301120Y-98926915D01*
X78454005Y-98698107D01*
X78559314Y-98443870D01*
X78613000Y-98173972D01*
X78613000Y-97898788D01*
X78559314Y-97628890D01*
X78454005Y-97374653D01*
X78438869Y-97352000D01*
X83909577Y-97352000D01*
X83947000Y-97355686D01*
X83984423Y-97352000D01*
X83984426Y-97352000D01*
X84096378Y-97340974D01*
X84240015Y-97297402D01*
X84289410Y-97271000D01*
X84293089Y-97271000D01*
X84473729Y-97235068D01*
X84643889Y-97164586D01*
X84797028Y-97062262D01*
X84927262Y-96932028D01*
X85029586Y-96778889D01*
X85100068Y-96608729D01*
X85119904Y-96509010D01*
X85314096Y-96509010D01*
X85333932Y-96608729D01*
X85404414Y-96778889D01*
X85506738Y-96932028D01*
X85636972Y-97062262D01*
X85790111Y-97164586D01*
X85960271Y-97235068D01*
X86140911Y-97271000D01*
X86325089Y-97271000D01*
X86505729Y-97235068D01*
X86675889Y-97164586D01*
X86804500Y-97078651D01*
X86829472Y-97095337D01*
X86822000Y-97132903D01*
X86822000Y-97317081D01*
X86857932Y-97497721D01*
X86928414Y-97667881D01*
X87030738Y-97821020D01*
X87160972Y-97951254D01*
X87314111Y-98053578D01*
X87484271Y-98124060D01*
X87664911Y-98159992D01*
X87849089Y-98159992D01*
X88029729Y-98124060D01*
X88199889Y-98053578D01*
X88259702Y-98013613D01*
X88300738Y-98075028D01*
X88430972Y-98205262D01*
X88584111Y-98307586D01*
X88754271Y-98378068D01*
X88934911Y-98414000D01*
X89119089Y-98414000D01*
X89299729Y-98378068D01*
X89469889Y-98307586D01*
X89623028Y-98205262D01*
X89753262Y-98075028D01*
X89855586Y-97921889D01*
X89926068Y-97751729D01*
X89962000Y-97571089D01*
X89962000Y-97386911D01*
X89926068Y-97206271D01*
X89855586Y-97036111D01*
X89789000Y-96936458D01*
X89789000Y-96593708D01*
X90673482Y-95709226D01*
X90728937Y-95692404D01*
X90861314Y-95621647D01*
X90977344Y-95526424D01*
X91001207Y-95497347D01*
X91236349Y-95262204D01*
X91265424Y-95238343D01*
X91347444Y-95138401D01*
X91360647Y-95122314D01*
X91414372Y-95021801D01*
X91431404Y-94989936D01*
X91474976Y-94846299D01*
X91486002Y-94734347D01*
X91486002Y-94734345D01*
X91489688Y-94696922D01*
X91486002Y-94659499D01*
X91486002Y-93631146D01*
X91718109Y-93713481D01*
X91948000Y-93592814D01*
X91948000Y-92399000D01*
X91928000Y-92399000D01*
X91928000Y-92145000D01*
X91948000Y-92145000D01*
X91948000Y-92125000D01*
X92202000Y-92125000D01*
X92202000Y-92145000D01*
G37*
G04 #@! TD.AperFunction*
D15*
X61844649Y-81673721D02*
X61815579Y-81697578D01*
X61791722Y-81726648D01*
X61791721Y-81726649D01*
X61720355Y-81813608D01*
X61649599Y-81945985D01*
X61606027Y-82089622D01*
X61591314Y-82239000D01*
X61595001Y-82276433D01*
X61595000Y-96174458D01*
X61528414Y-96274111D01*
X61457932Y-96444271D01*
X61422000Y-96624911D01*
X61422000Y-96809089D01*
X61457932Y-96989729D01*
X61528414Y-97159889D01*
X61630738Y-97313028D01*
X61760972Y-97443262D01*
X61914111Y-97545586D01*
X62084271Y-97616068D01*
X62264911Y-97652000D01*
X62449089Y-97652000D01*
X62629729Y-97616068D01*
X62799889Y-97545586D01*
X62953028Y-97443262D01*
X63083262Y-97313028D01*
X63185586Y-97159889D01*
X63256068Y-96989729D01*
X63292000Y-96809089D01*
X63292000Y-96624911D01*
X63256068Y-96444271D01*
X63185586Y-96274111D01*
X63119000Y-96174458D01*
X63119000Y-82554630D01*
X65691969Y-79981662D01*
X65659000Y-80147408D01*
X65659000Y-80422592D01*
X65712686Y-80692490D01*
X65817995Y-80946727D01*
X65970880Y-81175535D01*
X66165465Y-81370120D01*
X66394273Y-81523005D01*
X66648510Y-81628314D01*
X66918408Y-81682000D01*
X67193592Y-81682000D01*
X67463490Y-81628314D01*
X67717727Y-81523005D01*
X67946535Y-81370120D01*
X68141120Y-81175535D01*
X68294005Y-80946727D01*
X68326000Y-80869485D01*
X68357995Y-80946727D01*
X68510880Y-81175535D01*
X68705465Y-81370120D01*
X68834000Y-81456005D01*
X68834001Y-82709567D01*
X68830314Y-82747000D01*
X68845027Y-82896378D01*
X68888599Y-83040015D01*
X68959355Y-83172392D01*
X69024125Y-83251314D01*
X69054579Y-83288422D01*
X69083649Y-83312279D01*
X70104000Y-84332631D01*
X70104001Y-86603319D01*
X70003490Y-86561686D01*
X69733592Y-86508000D01*
X69458408Y-86508000D01*
X69188510Y-86561686D01*
X68934273Y-86666995D01*
X68705465Y-86819880D01*
X68510880Y-87014465D01*
X68357995Y-87243273D01*
X68326000Y-87320515D01*
X68294005Y-87243273D01*
X68141120Y-87014465D01*
X67946535Y-86819880D01*
X67717727Y-86666995D01*
X67463490Y-86561686D01*
X67193592Y-86508000D01*
X66918408Y-86508000D01*
X66648510Y-86561686D01*
X66394273Y-86666995D01*
X66165465Y-86819880D01*
X65970880Y-87014465D01*
X65817995Y-87243273D01*
X65712686Y-87497510D01*
X65659000Y-87767408D01*
X65659000Y-88042592D01*
X65689159Y-88194211D01*
X65273649Y-88609721D01*
X65244579Y-88633578D01*
X65220722Y-88662648D01*
X65220721Y-88662649D01*
X65149355Y-88749608D01*
X65078599Y-88881985D01*
X65035027Y-89025622D01*
X65020314Y-89175000D01*
X65024001Y-89212433D01*
X65024000Y-96736577D01*
X65020314Y-96774000D01*
X65024000Y-96811423D01*
X65024000Y-96811425D01*
X65035026Y-96923377D01*
X65078598Y-97067014D01*
X65097131Y-97101686D01*
X65149355Y-97199392D01*
X65178634Y-97235068D01*
X65244578Y-97315422D01*
X65273654Y-97339284D01*
X65689159Y-97754789D01*
X65659000Y-97906408D01*
X65659000Y-98181592D01*
X65712686Y-98451490D01*
X65817995Y-98705727D01*
X65970880Y-98934535D01*
X66165465Y-99129120D01*
X66394273Y-99282005D01*
X66648510Y-99387314D01*
X66651959Y-99388000D01*
X53238000Y-99388000D01*
X53238000Y-92080419D01*
X53241193Y-92048000D01*
X53228450Y-91918617D01*
X53190710Y-91794207D01*
X53129425Y-91679550D01*
X53046948Y-91579052D01*
X52946450Y-91496575D01*
X52831793Y-91435290D01*
X52707383Y-91397550D01*
X52705000Y-91397315D01*
X52705000Y-91007978D01*
X52770506Y-91061737D01*
X52880820Y-91120702D01*
X53000518Y-91157012D01*
X53125000Y-91169272D01*
X54825000Y-91169272D01*
X54949482Y-91157012D01*
X55069180Y-91120702D01*
X55179494Y-91061737D01*
X55276185Y-90982385D01*
X55355537Y-90885694D01*
X55414502Y-90775380D01*
X55450812Y-90655682D01*
X55463072Y-90531200D01*
X55463072Y-88831200D01*
X55450812Y-88706718D01*
X55414502Y-88587020D01*
X55355537Y-88476706D01*
X55276185Y-88380015D01*
X55179494Y-88300663D01*
X55069180Y-88241698D01*
X54996620Y-88219687D01*
X55128475Y-88087832D01*
X55290990Y-87844611D01*
X55402932Y-87574358D01*
X55460000Y-87287460D01*
X55460000Y-86994940D01*
X55402932Y-86708042D01*
X55290990Y-86437789D01*
X55128475Y-86194568D01*
X54921632Y-85987725D01*
X54747240Y-85871200D01*
X54921632Y-85754675D01*
X55128475Y-85547832D01*
X55290990Y-85304611D01*
X55402932Y-85034358D01*
X55460000Y-84747460D01*
X55460000Y-84454940D01*
X55402932Y-84168042D01*
X55290990Y-83897789D01*
X55128475Y-83654568D01*
X54921632Y-83447725D01*
X54747240Y-83331200D01*
X54921632Y-83214675D01*
X55128475Y-83007832D01*
X55290990Y-82764611D01*
X55402932Y-82494358D01*
X55460000Y-82207460D01*
X55460000Y-81914940D01*
X55402932Y-81628042D01*
X55290990Y-81357789D01*
X55128475Y-81114568D01*
X54921632Y-80907725D01*
X54739466Y-80786005D01*
X54856355Y-80716378D01*
X55072588Y-80521469D01*
X55246641Y-80288120D01*
X55371825Y-80025299D01*
X55416476Y-79878090D01*
X55295155Y-79648200D01*
X54102000Y-79648200D01*
X54102000Y-79668200D01*
X53848000Y-79668200D01*
X53848000Y-79648200D01*
X53828000Y-79648200D01*
X53828000Y-79394200D01*
X53848000Y-79394200D01*
X53848000Y-79374200D01*
X54102000Y-79374200D01*
X54102000Y-79394200D01*
X55295155Y-79394200D01*
X55416476Y-79164310D01*
X55371825Y-79017101D01*
X55246641Y-78754280D01*
X55212121Y-78708000D01*
X64810369Y-78708000D01*
X61844649Y-81673721D01*
G04 #@! TA.AperFunction,Conductor*
D17*
G36*
X61844649Y-81673721D02*
G01*
X61815579Y-81697578D01*
X61791722Y-81726648D01*
X61791721Y-81726649D01*
X61720355Y-81813608D01*
X61649599Y-81945985D01*
X61606027Y-82089622D01*
X61591314Y-82239000D01*
X61595001Y-82276433D01*
X61595000Y-96174458D01*
X61528414Y-96274111D01*
X61457932Y-96444271D01*
X61422000Y-96624911D01*
X61422000Y-96809089D01*
X61457932Y-96989729D01*
X61528414Y-97159889D01*
X61630738Y-97313028D01*
X61760972Y-97443262D01*
X61914111Y-97545586D01*
X62084271Y-97616068D01*
X62264911Y-97652000D01*
X62449089Y-97652000D01*
X62629729Y-97616068D01*
X62799889Y-97545586D01*
X62953028Y-97443262D01*
X63083262Y-97313028D01*
X63185586Y-97159889D01*
X63256068Y-96989729D01*
X63292000Y-96809089D01*
X63292000Y-96624911D01*
X63256068Y-96444271D01*
X63185586Y-96274111D01*
X63119000Y-96174458D01*
X63119000Y-82554630D01*
X65691969Y-79981662D01*
X65659000Y-80147408D01*
X65659000Y-80422592D01*
X65712686Y-80692490D01*
X65817995Y-80946727D01*
X65970880Y-81175535D01*
X66165465Y-81370120D01*
X66394273Y-81523005D01*
X66648510Y-81628314D01*
X66918408Y-81682000D01*
X67193592Y-81682000D01*
X67463490Y-81628314D01*
X67717727Y-81523005D01*
X67946535Y-81370120D01*
X68141120Y-81175535D01*
X68294005Y-80946727D01*
X68326000Y-80869485D01*
X68357995Y-80946727D01*
X68510880Y-81175535D01*
X68705465Y-81370120D01*
X68834000Y-81456005D01*
X68834001Y-82709567D01*
X68830314Y-82747000D01*
X68845027Y-82896378D01*
X68888599Y-83040015D01*
X68959355Y-83172392D01*
X69024125Y-83251314D01*
X69054579Y-83288422D01*
X69083649Y-83312279D01*
X70104000Y-84332631D01*
X70104001Y-86603319D01*
X70003490Y-86561686D01*
X69733592Y-86508000D01*
X69458408Y-86508000D01*
X69188510Y-86561686D01*
X68934273Y-86666995D01*
X68705465Y-86819880D01*
X68510880Y-87014465D01*
X68357995Y-87243273D01*
X68326000Y-87320515D01*
X68294005Y-87243273D01*
X68141120Y-87014465D01*
X67946535Y-86819880D01*
X67717727Y-86666995D01*
X67463490Y-86561686D01*
X67193592Y-86508000D01*
X66918408Y-86508000D01*
X66648510Y-86561686D01*
X66394273Y-86666995D01*
X66165465Y-86819880D01*
X65970880Y-87014465D01*
X65817995Y-87243273D01*
X65712686Y-87497510D01*
X65659000Y-87767408D01*
X65659000Y-88042592D01*
X65689159Y-88194211D01*
X65273649Y-88609721D01*
X65244579Y-88633578D01*
X65220722Y-88662648D01*
X65220721Y-88662649D01*
X65149355Y-88749608D01*
X65078599Y-88881985D01*
X65035027Y-89025622D01*
X65020314Y-89175000D01*
X65024001Y-89212433D01*
X65024000Y-96736577D01*
X65020314Y-96774000D01*
X65024000Y-96811423D01*
X65024000Y-96811425D01*
X65035026Y-96923377D01*
X65078598Y-97067014D01*
X65097131Y-97101686D01*
X65149355Y-97199392D01*
X65178634Y-97235068D01*
X65244578Y-97315422D01*
X65273654Y-97339284D01*
X65689159Y-97754789D01*
X65659000Y-97906408D01*
X65659000Y-98181592D01*
X65712686Y-98451490D01*
X65817995Y-98705727D01*
X65970880Y-98934535D01*
X66165465Y-99129120D01*
X66394273Y-99282005D01*
X66648510Y-99387314D01*
X66651959Y-99388000D01*
X53238000Y-99388000D01*
X53238000Y-92080419D01*
X53241193Y-92048000D01*
X53228450Y-91918617D01*
X53190710Y-91794207D01*
X53129425Y-91679550D01*
X53046948Y-91579052D01*
X52946450Y-91496575D01*
X52831793Y-91435290D01*
X52707383Y-91397550D01*
X52705000Y-91397315D01*
X52705000Y-91007978D01*
X52770506Y-91061737D01*
X52880820Y-91120702D01*
X53000518Y-91157012D01*
X53125000Y-91169272D01*
X54825000Y-91169272D01*
X54949482Y-91157012D01*
X55069180Y-91120702D01*
X55179494Y-91061737D01*
X55276185Y-90982385D01*
X55355537Y-90885694D01*
X55414502Y-90775380D01*
X55450812Y-90655682D01*
X55463072Y-90531200D01*
X55463072Y-88831200D01*
X55450812Y-88706718D01*
X55414502Y-88587020D01*
X55355537Y-88476706D01*
X55276185Y-88380015D01*
X55179494Y-88300663D01*
X55069180Y-88241698D01*
X54996620Y-88219687D01*
X55128475Y-88087832D01*
X55290990Y-87844611D01*
X55402932Y-87574358D01*
X55460000Y-87287460D01*
X55460000Y-86994940D01*
X55402932Y-86708042D01*
X55290990Y-86437789D01*
X55128475Y-86194568D01*
X54921632Y-85987725D01*
X54747240Y-85871200D01*
X54921632Y-85754675D01*
X55128475Y-85547832D01*
X55290990Y-85304611D01*
X55402932Y-85034358D01*
X55460000Y-84747460D01*
X55460000Y-84454940D01*
X55402932Y-84168042D01*
X55290990Y-83897789D01*
X55128475Y-83654568D01*
X54921632Y-83447725D01*
X54747240Y-83331200D01*
X54921632Y-83214675D01*
X55128475Y-83007832D01*
X55290990Y-82764611D01*
X55402932Y-82494358D01*
X55460000Y-82207460D01*
X55460000Y-81914940D01*
X55402932Y-81628042D01*
X55290990Y-81357789D01*
X55128475Y-81114568D01*
X54921632Y-80907725D01*
X54739466Y-80786005D01*
X54856355Y-80716378D01*
X55072588Y-80521469D01*
X55246641Y-80288120D01*
X55371825Y-80025299D01*
X55416476Y-79878090D01*
X55295155Y-79648200D01*
X54102000Y-79648200D01*
X54102000Y-79668200D01*
X53848000Y-79668200D01*
X53848000Y-79648200D01*
X53828000Y-79648200D01*
X53828000Y-79394200D01*
X53848000Y-79394200D01*
X53848000Y-79374200D01*
X54102000Y-79374200D01*
X54102000Y-79394200D01*
X55295155Y-79394200D01*
X55416476Y-79164310D01*
X55371825Y-79017101D01*
X55246641Y-78754280D01*
X55212121Y-78708000D01*
X64810369Y-78708000D01*
X61844649Y-81673721D01*
G37*
G04 #@! TD.AperFunction*
D15*
X83185000Y-82935630D02*
X83185001Y-84741571D01*
X83181314Y-84779000D01*
X83185001Y-84816429D01*
X83185001Y-85537292D01*
X81423298Y-83775590D01*
X81417068Y-83744271D01*
X81346586Y-83574111D01*
X81244262Y-83420972D01*
X81114028Y-83290738D01*
X80960889Y-83188414D01*
X80790729Y-83117932D01*
X80690042Y-83097904D01*
X80691000Y-83093089D01*
X80691000Y-82908911D01*
X80655068Y-82728271D01*
X80584586Y-82558111D01*
X80482262Y-82404972D01*
X80352028Y-82274738D01*
X80198889Y-82172414D01*
X80028729Y-82101932D01*
X79848089Y-82066000D01*
X79663911Y-82066000D01*
X79483271Y-82101932D01*
X79313111Y-82172414D01*
X79159972Y-82274738D01*
X79029738Y-82404972D01*
X78927414Y-82558111D01*
X78856932Y-82728271D01*
X78821000Y-82908911D01*
X78821000Y-83093089D01*
X78856932Y-83273729D01*
X78927414Y-83443889D01*
X78994000Y-83543543D01*
X78994001Y-84233567D01*
X78990314Y-84271000D01*
X79005027Y-84420378D01*
X79044199Y-84549511D01*
X79013011Y-84580699D01*
X75777966Y-81345654D01*
X75754104Y-81316578D01*
X75680490Y-81256165D01*
X75761120Y-81175535D01*
X75914005Y-80946727D01*
X75946000Y-80869485D01*
X75977995Y-80946727D01*
X76130880Y-81175535D01*
X76325465Y-81370120D01*
X76554273Y-81523005D01*
X76808510Y-81628314D01*
X77078408Y-81682000D01*
X77353592Y-81682000D01*
X77623490Y-81628314D01*
X77877727Y-81523005D01*
X78106535Y-81370120D01*
X78301120Y-81175535D01*
X78454005Y-80946727D01*
X78486000Y-80869485D01*
X78517995Y-80946727D01*
X78670880Y-81175535D01*
X78865465Y-81370120D01*
X79094273Y-81523005D01*
X79348510Y-81628314D01*
X79618408Y-81682000D01*
X79893592Y-81682000D01*
X80163490Y-81628314D01*
X80417727Y-81523005D01*
X80646535Y-81370120D01*
X80841120Y-81175535D01*
X80994005Y-80946727D01*
X81053197Y-80803827D01*
X83185000Y-82935630D01*
G04 #@! TA.AperFunction,Conductor*
D17*
G36*
X83185000Y-82935630D02*
G01*
X83185001Y-84741571D01*
X83181314Y-84779000D01*
X83185001Y-84816429D01*
X83185001Y-85537292D01*
X81423298Y-83775590D01*
X81417068Y-83744271D01*
X81346586Y-83574111D01*
X81244262Y-83420972D01*
X81114028Y-83290738D01*
X80960889Y-83188414D01*
X80790729Y-83117932D01*
X80690042Y-83097904D01*
X80691000Y-83093089D01*
X80691000Y-82908911D01*
X80655068Y-82728271D01*
X80584586Y-82558111D01*
X80482262Y-82404972D01*
X80352028Y-82274738D01*
X80198889Y-82172414D01*
X80028729Y-82101932D01*
X79848089Y-82066000D01*
X79663911Y-82066000D01*
X79483271Y-82101932D01*
X79313111Y-82172414D01*
X79159972Y-82274738D01*
X79029738Y-82404972D01*
X78927414Y-82558111D01*
X78856932Y-82728271D01*
X78821000Y-82908911D01*
X78821000Y-83093089D01*
X78856932Y-83273729D01*
X78927414Y-83443889D01*
X78994000Y-83543543D01*
X78994001Y-84233567D01*
X78990314Y-84271000D01*
X79005027Y-84420378D01*
X79044199Y-84549511D01*
X79013011Y-84580699D01*
X75777966Y-81345654D01*
X75754104Y-81316578D01*
X75680490Y-81256165D01*
X75761120Y-81175535D01*
X75914005Y-80946727D01*
X75946000Y-80869485D01*
X75977995Y-80946727D01*
X76130880Y-81175535D01*
X76325465Y-81370120D01*
X76554273Y-81523005D01*
X76808510Y-81628314D01*
X77078408Y-81682000D01*
X77353592Y-81682000D01*
X77623490Y-81628314D01*
X77877727Y-81523005D01*
X78106535Y-81370120D01*
X78301120Y-81175535D01*
X78454005Y-80946727D01*
X78486000Y-80869485D01*
X78517995Y-80946727D01*
X78670880Y-81175535D01*
X78865465Y-81370120D01*
X79094273Y-81523005D01*
X79348510Y-81628314D01*
X79618408Y-81682000D01*
X79893592Y-81682000D01*
X80163490Y-81628314D01*
X80417727Y-81523005D01*
X80646535Y-81370120D01*
X80841120Y-81175535D01*
X80994005Y-80946727D01*
X81053197Y-80803827D01*
X83185000Y-82935630D01*
G37*
G04 #@! TD.AperFunction*
D15*
X92918001Y-83163928D02*
X91225000Y-83163928D01*
X91100518Y-83176188D01*
X90980820Y-83212498D01*
X90870506Y-83271463D01*
X90773815Y-83350815D01*
X90694463Y-83447506D01*
X90635498Y-83557820D01*
X90599188Y-83677518D01*
X90586928Y-83802000D01*
X90586928Y-83890000D01*
X84709000Y-83890000D01*
X84709000Y-82657423D01*
X84712686Y-82620000D01*
X84708314Y-82575608D01*
X84697974Y-82470622D01*
X84654402Y-82326985D01*
X84590515Y-82207460D01*
X84583645Y-82194607D01*
X84547869Y-82151015D01*
X84488422Y-82078578D01*
X84459347Y-82054717D01*
X81112630Y-78708000D01*
X92918000Y-78708000D01*
X92918001Y-83163928D01*
G04 #@! TA.AperFunction,Conductor*
D17*
G36*
X92918001Y-83163928D02*
G01*
X91225000Y-83163928D01*
X91100518Y-83176188D01*
X90980820Y-83212498D01*
X90870506Y-83271463D01*
X90773815Y-83350815D01*
X90694463Y-83447506D01*
X90635498Y-83557820D01*
X90599188Y-83677518D01*
X90586928Y-83802000D01*
X90586928Y-83890000D01*
X84709000Y-83890000D01*
X84709000Y-82657423D01*
X84712686Y-82620000D01*
X84708314Y-82575608D01*
X84697974Y-82470622D01*
X84654402Y-82326985D01*
X84590515Y-82207460D01*
X84583645Y-82194607D01*
X84547869Y-82151015D01*
X84488422Y-82078578D01*
X84459347Y-82054717D01*
X81112630Y-78708000D01*
X92918000Y-78708000D01*
X92918001Y-83163928D01*
G37*
G04 #@! TD.AperFunction*
M02*
