M48
; DRILL file {KiCad (5.1.10)-1} date 01/31/23 14:41:33
; FORMAT={-:-/ absolute / metric / decimal}
; #@! TF.CreationDate,2023-01-31T14:41:33+02:00
; #@! TF.GenerationSoftware,Kicad,Pcbnew,(5.1.10)-1
FMAT,2
METRIC
T1C0.400
T2C0.762
T3C1.000
%
G90
G05
T1
X55.118Y-91.637
X55.245Y-93.923
X61.214Y-87.446
X62.357Y-96.717
X62.722Y-99.146
X63.881Y-93.542
X67.183Y-82.112
X67.183Y-86.049
X74.93Y-86.303
X76.881Y-94.731
X76.881Y-95.747
X76.962Y-93.796
X77.597Y-96.59
X78.867Y-99.13
X79.682Y-85.234
X79.756Y-83.001
X80.518Y-84.017
X81.153Y-81.35
X82.931Y-93.669
X83.058Y-92.272
X83.746Y-89.298
X83.947Y-86.176
X84.201Y-96.336
X85.471Y-99.13
X86.233Y-96.336
X86.614Y-80.334
X87.376Y-96.336
X87.63Y-89.224
X87.757Y-97.225
X87.884Y-88.335
X88.519Y-78.937
X89.027Y-97.479
X89.789Y-96.336
X89.806Y-89.859
X89.947Y-93.325
X90.17Y-94.431
X92.583Y-78.937
X92.583Y-82.874
T2
X67.056Y-80.285
X67.056Y-87.905
X67.056Y-90.424
X67.056Y-98.044
X69.596Y-80.285
X69.596Y-87.905
X69.596Y-90.424
X69.596Y-98.044
X72.136Y-80.285
X72.136Y-87.905
X72.136Y-90.424
X72.136Y-98.044
X74.676Y-80.285
X74.676Y-87.991
X74.676Y-90.424
X74.676Y-98.13
X77.216Y-80.285
X77.216Y-87.897
X77.216Y-90.424
X77.216Y-98.036
X79.756Y-80.285
X79.756Y-90.424
T3
X53.975Y-79.521
X53.975Y-82.061
X53.975Y-84.601
X53.975Y-87.141
X53.975Y-89.681
X92.075Y-84.652
X92.075Y-87.192
X92.075Y-89.732
X92.075Y-92.272
T0
M30
