G04 #@! TF.GenerationSoftware,KiCad,Pcbnew,(5.1.10)-1*
G04 #@! TF.CreationDate,2023-01-31T14:41:16+02:00*
G04 #@! TF.ProjectId,voltmeter,766f6c74-6d65-4746-9572-2e6b69636164,rev?*
G04 #@! TF.SameCoordinates,Original*
G04 #@! TF.FileFunction,Paste,Bot*
G04 #@! TF.FilePolarity,Positive*
%FSLAX46Y46*%
G04 Gerber Fmt 4.6, Leading zero omitted, Abs format (unit mm)*
G04 Created by KiCad (PCBNEW (5.1.10)-1) date 2023-01-31 14:41:16*
%MOMM*%
%LPD*%
G01*
G04 APERTURE LIST*
G04 #@! TA.AperFunction,Profile*
%ADD10C,0.050000*%
G04 #@! TD*
%ADD11R,1.200000X1.400000*%
%ADD12R,0.900000X0.400000*%
%ADD13C,0.100000*%
%ADD14R,1.300000X0.900000*%
G04 APERTURE END LIST*
D10*
X52578000Y-78048000D02*
X52578000Y-86048000D01*
X50578000Y-86048000D02*
X50578000Y-92048000D01*
X52578000Y-86048000D02*
X50578000Y-86048000D01*
X52578000Y-92048000D02*
X50578000Y-92048000D01*
X52578000Y-92048000D02*
X52578000Y-100048000D01*
X93578000Y-92048000D02*
X93578000Y-100048000D01*
X95578000Y-92048000D02*
X93578000Y-92048000D01*
X95578000Y-86048000D02*
X93578000Y-86048000D01*
X95578000Y-86048000D02*
X95578000Y-92048000D01*
X52578000Y-100048000D02*
X93578000Y-100048000D01*
X93578000Y-78048000D02*
X93578000Y-86048000D01*
X52578000Y-78048000D02*
X93578000Y-78048000D01*
D11*
X92683700Y-98274200D03*
X92683700Y-96074200D03*
X90983700Y-96074200D03*
X90983700Y-98274200D03*
D12*
X74864700Y-93853300D03*
X74864700Y-94653300D03*
X74864700Y-95453300D03*
X74864700Y-96253300D03*
X73164700Y-93853300D03*
X73164700Y-96253300D03*
X73164700Y-94653300D03*
X73164700Y-95453300D03*
G36*
G01*
X79281000Y-96553500D02*
X80231000Y-96553500D01*
G75*
G02*
X80481000Y-96803500I0J-250000D01*
G01*
X80481000Y-97478500D01*
G75*
G02*
X80231000Y-97728500I-250000J0D01*
G01*
X79281000Y-97728500D01*
G75*
G02*
X79031000Y-97478500I0J250000D01*
G01*
X79031000Y-96803500D01*
G75*
G02*
X79281000Y-96553500I250000J0D01*
G01*
G37*
G36*
G01*
X79281000Y-94478500D02*
X80231000Y-94478500D01*
G75*
G02*
X80481000Y-94728500I0J-250000D01*
G01*
X80481000Y-95403500D01*
G75*
G02*
X80231000Y-95653500I-250000J0D01*
G01*
X79281000Y-95653500D01*
G75*
G02*
X79031000Y-95403500I0J250000D01*
G01*
X79031000Y-94728500D01*
G75*
G02*
X79281000Y-94478500I250000J0D01*
G01*
G37*
G36*
G01*
X81643200Y-97285200D02*
X82593200Y-97285200D01*
G75*
G02*
X82843200Y-97535200I0J-250000D01*
G01*
X82843200Y-98210200D01*
G75*
G02*
X82593200Y-98460200I-250000J0D01*
G01*
X81643200Y-98460200D01*
G75*
G02*
X81393200Y-98210200I0J250000D01*
G01*
X81393200Y-97535200D01*
G75*
G02*
X81643200Y-97285200I250000J0D01*
G01*
G37*
G36*
G01*
X81643200Y-95210200D02*
X82593200Y-95210200D01*
G75*
G02*
X82843200Y-95460200I0J-250000D01*
G01*
X82843200Y-96135200D01*
G75*
G02*
X82593200Y-96385200I-250000J0D01*
G01*
X81643200Y-96385200D01*
G75*
G02*
X81393200Y-96135200I0J250000D01*
G01*
X81393200Y-95460200D01*
G75*
G02*
X81643200Y-95210200I250000J0D01*
G01*
G37*
G36*
G01*
X82136000Y-91237800D02*
X81186000Y-91237800D01*
G75*
G02*
X80936000Y-90987800I0J250000D01*
G01*
X80936000Y-90312800D01*
G75*
G02*
X81186000Y-90062800I250000J0D01*
G01*
X82136000Y-90062800D01*
G75*
G02*
X82386000Y-90312800I0J-250000D01*
G01*
X82386000Y-90987800D01*
G75*
G02*
X82136000Y-91237800I-250000J0D01*
G01*
G37*
G36*
G01*
X82136000Y-93312800D02*
X81186000Y-93312800D01*
G75*
G02*
X80936000Y-93062800I0J250000D01*
G01*
X80936000Y-92387800D01*
G75*
G02*
X81186000Y-92137800I250000J0D01*
G01*
X82136000Y-92137800D01*
G75*
G02*
X82386000Y-92387800I0J-250000D01*
G01*
X82386000Y-93062800D01*
G75*
G02*
X82136000Y-93312800I-250000J0D01*
G01*
G37*
D13*
G36*
X59704000Y-97964500D02*
G01*
X56579000Y-97964500D01*
X56579000Y-97548000D01*
X55104000Y-97548000D01*
X55104000Y-96648000D01*
X56579000Y-96648000D01*
X56579000Y-96231500D01*
X59704000Y-96231500D01*
X59704000Y-97964500D01*
G37*
D14*
X55754000Y-95598000D03*
X55754000Y-98598000D03*
G36*
G01*
X60485000Y-98161500D02*
X61435000Y-98161500D01*
G75*
G02*
X61685000Y-98411500I0J-250000D01*
G01*
X61685000Y-99086500D01*
G75*
G02*
X61435000Y-99336500I-250000J0D01*
G01*
X60485000Y-99336500D01*
G75*
G02*
X60235000Y-99086500I0J250000D01*
G01*
X60235000Y-98411500D01*
G75*
G02*
X60485000Y-98161500I250000J0D01*
G01*
G37*
G36*
G01*
X60485000Y-96086500D02*
X61435000Y-96086500D01*
G75*
G02*
X61685000Y-96336500I0J-250000D01*
G01*
X61685000Y-97011500D01*
G75*
G02*
X61435000Y-97261500I-250000J0D01*
G01*
X60485000Y-97261500D01*
G75*
G02*
X60235000Y-97011500I0J250000D01*
G01*
X60235000Y-96336500D01*
G75*
G02*
X60485000Y-96086500I250000J0D01*
G01*
G37*
G36*
G01*
X53246000Y-98204500D02*
X54196000Y-98204500D01*
G75*
G02*
X54446000Y-98454500I0J-250000D01*
G01*
X54446000Y-99129500D01*
G75*
G02*
X54196000Y-99379500I-250000J0D01*
G01*
X53246000Y-99379500D01*
G75*
G02*
X52996000Y-99129500I0J250000D01*
G01*
X52996000Y-98454500D01*
G75*
G02*
X53246000Y-98204500I250000J0D01*
G01*
G37*
G36*
G01*
X53246000Y-96129500D02*
X54196000Y-96129500D01*
G75*
G02*
X54446000Y-96379500I0J-250000D01*
G01*
X54446000Y-97054500D01*
G75*
G02*
X54196000Y-97304500I-250000J0D01*
G01*
X53246000Y-97304500D01*
G75*
G02*
X52996000Y-97054500I0J250000D01*
G01*
X52996000Y-96379500D01*
G75*
G02*
X53246000Y-96129500I250000J0D01*
G01*
G37*
G36*
G01*
X89604001Y-87250000D02*
X88703999Y-87250000D01*
G75*
G02*
X88454000Y-87000001I0J249999D01*
G01*
X88454000Y-86349999D01*
G75*
G02*
X88703999Y-86100000I249999J0D01*
G01*
X89604001Y-86100000D01*
G75*
G02*
X89854000Y-86349999I0J-249999D01*
G01*
X89854000Y-87000001D01*
G75*
G02*
X89604001Y-87250000I-249999J0D01*
G01*
G37*
G36*
G01*
X89604001Y-89300000D02*
X88703999Y-89300000D01*
G75*
G02*
X88454000Y-89050001I0J249999D01*
G01*
X88454000Y-88399999D01*
G75*
G02*
X88703999Y-88150000I249999J0D01*
G01*
X89604001Y-88150000D01*
G75*
G02*
X89854000Y-88399999I0J-249999D01*
G01*
X89854000Y-89050001D01*
G75*
G02*
X89604001Y-89300000I-249999J0D01*
G01*
G37*
G36*
G01*
X89629000Y-83440000D02*
X88679000Y-83440000D01*
G75*
G02*
X88429000Y-83190000I0J250000D01*
G01*
X88429000Y-82515000D01*
G75*
G02*
X88679000Y-82265000I250000J0D01*
G01*
X89629000Y-82265000D01*
G75*
G02*
X89879000Y-82515000I0J-250000D01*
G01*
X89879000Y-83190000D01*
G75*
G02*
X89629000Y-83440000I-250000J0D01*
G01*
G37*
G36*
G01*
X89629000Y-85515000D02*
X88679000Y-85515000D01*
G75*
G02*
X88429000Y-85265000I0J250000D01*
G01*
X88429000Y-84590000D01*
G75*
G02*
X88679000Y-84340000I250000J0D01*
G01*
X89629000Y-84340000D01*
G75*
G02*
X89879000Y-84590000I0J-250000D01*
G01*
X89879000Y-85265000D01*
G75*
G02*
X89629000Y-85515000I-250000J0D01*
G01*
G37*
G36*
G01*
X85565000Y-85577500D02*
X84615000Y-85577500D01*
G75*
G02*
X84365000Y-85327500I0J250000D01*
G01*
X84365000Y-84652500D01*
G75*
G02*
X84615000Y-84402500I250000J0D01*
G01*
X85565000Y-84402500D01*
G75*
G02*
X85815000Y-84652500I0J-250000D01*
G01*
X85815000Y-85327500D01*
G75*
G02*
X85565000Y-85577500I-250000J0D01*
G01*
G37*
G36*
G01*
X85565000Y-87652500D02*
X84615000Y-87652500D01*
G75*
G02*
X84365000Y-87402500I0J250000D01*
G01*
X84365000Y-86727500D01*
G75*
G02*
X84615000Y-86477500I250000J0D01*
G01*
X85565000Y-86477500D01*
G75*
G02*
X85815000Y-86727500I0J-250000D01*
G01*
X85815000Y-87402500D01*
G75*
G02*
X85565000Y-87652500I-250000J0D01*
G01*
G37*
G36*
G01*
X87628400Y-98083500D02*
X87628400Y-99033500D01*
G75*
G02*
X87378400Y-99283500I-250000J0D01*
G01*
X86703400Y-99283500D01*
G75*
G02*
X86453400Y-99033500I0J250000D01*
G01*
X86453400Y-98083500D01*
G75*
G02*
X86703400Y-97833500I250000J0D01*
G01*
X87378400Y-97833500D01*
G75*
G02*
X87628400Y-98083500I0J-250000D01*
G01*
G37*
G36*
G01*
X89703400Y-98083500D02*
X89703400Y-99033500D01*
G75*
G02*
X89453400Y-99283500I-250000J0D01*
G01*
X88778400Y-99283500D01*
G75*
G02*
X88528400Y-99033500I0J250000D01*
G01*
X88528400Y-98083500D01*
G75*
G02*
X88778400Y-97833500I250000J0D01*
G01*
X89453400Y-97833500D01*
G75*
G02*
X89703400Y-98083500I0J-250000D01*
G01*
G37*
G36*
G01*
X61410001Y-79553000D02*
X60509999Y-79553000D01*
G75*
G02*
X60260000Y-79303001I0J249999D01*
G01*
X60260000Y-78602999D01*
G75*
G02*
X60509999Y-78353000I249999J0D01*
G01*
X61410001Y-78353000D01*
G75*
G02*
X61660000Y-78602999I0J-249999D01*
G01*
X61660000Y-79303001D01*
G75*
G02*
X61410001Y-79553000I-249999J0D01*
G01*
G37*
G36*
G01*
X61410001Y-81553000D02*
X60509999Y-81553000D01*
G75*
G02*
X60260000Y-81303001I0J249999D01*
G01*
X60260000Y-80602999D01*
G75*
G02*
X60509999Y-80353000I249999J0D01*
G01*
X61410001Y-80353000D01*
G75*
G02*
X61660000Y-80602999I0J-249999D01*
G01*
X61660000Y-81303001D01*
G75*
G02*
X61410001Y-81553000I-249999J0D01*
G01*
G37*
G36*
G01*
X61410001Y-83347000D02*
X60509999Y-83347000D01*
G75*
G02*
X60260000Y-83097001I0J249999D01*
G01*
X60260000Y-82396999D01*
G75*
G02*
X60509999Y-82147000I249999J0D01*
G01*
X61410001Y-82147000D01*
G75*
G02*
X61660000Y-82396999I0J-249999D01*
G01*
X61660000Y-83097001D01*
G75*
G02*
X61410001Y-83347000I-249999J0D01*
G01*
G37*
G36*
G01*
X61410001Y-85347000D02*
X60509999Y-85347000D01*
G75*
G02*
X60260000Y-85097001I0J249999D01*
G01*
X60260000Y-84396999D01*
G75*
G02*
X60509999Y-84147000I249999J0D01*
G01*
X61410001Y-84147000D01*
G75*
G02*
X61660000Y-84396999I0J-249999D01*
G01*
X61660000Y-85097001D01*
G75*
G02*
X61410001Y-85347000I-249999J0D01*
G01*
G37*
G36*
G01*
X59505001Y-79553000D02*
X58604999Y-79553000D01*
G75*
G02*
X58355000Y-79303001I0J249999D01*
G01*
X58355000Y-78602999D01*
G75*
G02*
X58604999Y-78353000I249999J0D01*
G01*
X59505001Y-78353000D01*
G75*
G02*
X59755000Y-78602999I0J-249999D01*
G01*
X59755000Y-79303001D01*
G75*
G02*
X59505001Y-79553000I-249999J0D01*
G01*
G37*
G36*
G01*
X59505001Y-81553000D02*
X58604999Y-81553000D01*
G75*
G02*
X58355000Y-81303001I0J249999D01*
G01*
X58355000Y-80602999D01*
G75*
G02*
X58604999Y-80353000I249999J0D01*
G01*
X59505001Y-80353000D01*
G75*
G02*
X59755000Y-80602999I0J-249999D01*
G01*
X59755000Y-81303001D01*
G75*
G02*
X59505001Y-81553000I-249999J0D01*
G01*
G37*
G36*
G01*
X59505001Y-84490000D02*
X58604999Y-84490000D01*
G75*
G02*
X58355000Y-84240001I0J249999D01*
G01*
X58355000Y-83539999D01*
G75*
G02*
X58604999Y-83290000I249999J0D01*
G01*
X59505001Y-83290000D01*
G75*
G02*
X59755000Y-83539999I0J-249999D01*
G01*
X59755000Y-84240001D01*
G75*
G02*
X59505001Y-84490000I-249999J0D01*
G01*
G37*
G36*
G01*
X59505001Y-86490000D02*
X58604999Y-86490000D01*
G75*
G02*
X58355000Y-86240001I0J249999D01*
G01*
X58355000Y-85539999D01*
G75*
G02*
X58604999Y-85290000I249999J0D01*
G01*
X59505001Y-85290000D01*
G75*
G02*
X59755000Y-85539999I0J-249999D01*
G01*
X59755000Y-86240001D01*
G75*
G02*
X59505001Y-86490000I-249999J0D01*
G01*
G37*
G36*
G01*
X57473001Y-79537000D02*
X56572999Y-79537000D01*
G75*
G02*
X56323000Y-79287001I0J249999D01*
G01*
X56323000Y-78586999D01*
G75*
G02*
X56572999Y-78337000I249999J0D01*
G01*
X57473001Y-78337000D01*
G75*
G02*
X57723000Y-78586999I0J-249999D01*
G01*
X57723000Y-79287001D01*
G75*
G02*
X57473001Y-79537000I-249999J0D01*
G01*
G37*
G36*
G01*
X57473001Y-81537000D02*
X56572999Y-81537000D01*
G75*
G02*
X56323000Y-81287001I0J249999D01*
G01*
X56323000Y-80586999D01*
G75*
G02*
X56572999Y-80337000I249999J0D01*
G01*
X57473001Y-80337000D01*
G75*
G02*
X57723000Y-80586999I0J-249999D01*
G01*
X57723000Y-81287001D01*
G75*
G02*
X57473001Y-81537000I-249999J0D01*
G01*
G37*
G36*
G01*
X57473001Y-83363000D02*
X56572999Y-83363000D01*
G75*
G02*
X56323000Y-83113001I0J249999D01*
G01*
X56323000Y-82412999D01*
G75*
G02*
X56572999Y-82163000I249999J0D01*
G01*
X57473001Y-82163000D01*
G75*
G02*
X57723000Y-82412999I0J-249999D01*
G01*
X57723000Y-83113001D01*
G75*
G02*
X57473001Y-83363000I-249999J0D01*
G01*
G37*
G36*
G01*
X57473001Y-85363000D02*
X56572999Y-85363000D01*
G75*
G02*
X56323000Y-85113001I0J249999D01*
G01*
X56323000Y-84412999D01*
G75*
G02*
X56572999Y-84163000I249999J0D01*
G01*
X57473001Y-84163000D01*
G75*
G02*
X57723000Y-84412999I0J-249999D01*
G01*
X57723000Y-85113001D01*
G75*
G02*
X57473001Y-85363000I-249999J0D01*
G01*
G37*
D12*
X77850100Y-83286900D03*
X77850100Y-84086900D03*
X77850100Y-84886900D03*
X77850100Y-85686900D03*
X76150100Y-83286900D03*
X76150100Y-85686900D03*
X76150100Y-84086900D03*
X76150100Y-84886900D03*
G36*
G01*
X87572001Y-85665000D02*
X86671999Y-85665000D01*
G75*
G02*
X86422000Y-85415001I0J249999D01*
G01*
X86422000Y-84714999D01*
G75*
G02*
X86671999Y-84465000I249999J0D01*
G01*
X87572001Y-84465000D01*
G75*
G02*
X87822000Y-84714999I0J-249999D01*
G01*
X87822000Y-85415001D01*
G75*
G02*
X87572001Y-85665000I-249999J0D01*
G01*
G37*
G36*
G01*
X87572001Y-87665000D02*
X86671999Y-87665000D01*
G75*
G02*
X86422000Y-87415001I0J249999D01*
G01*
X86422000Y-86714999D01*
G75*
G02*
X86671999Y-86465000I249999J0D01*
G01*
X87572001Y-86465000D01*
G75*
G02*
X87822000Y-86714999I0J-249999D01*
G01*
X87822000Y-87415001D01*
G75*
G02*
X87572001Y-87665000I-249999J0D01*
G01*
G37*
G36*
G01*
X87247000Y-91770001D02*
X87247000Y-91249999D01*
G75*
G02*
X87496999Y-91000000I249999J0D01*
G01*
X88017001Y-91000000D01*
G75*
G02*
X88267000Y-91249999I0J-249999D01*
G01*
X88267000Y-91770001D01*
G75*
G02*
X88017001Y-92020000I-249999J0D01*
G01*
X87496999Y-92020000D01*
G75*
G02*
X87247000Y-91770001I0J249999D01*
G01*
G37*
G36*
G01*
X87247000Y-93040001D02*
X87247000Y-92519999D01*
G75*
G02*
X87496999Y-92270000I249999J0D01*
G01*
X88017001Y-92270000D01*
G75*
G02*
X88267000Y-92519999I0J-249999D01*
G01*
X88267000Y-93040001D01*
G75*
G02*
X88017001Y-93290000I-249999J0D01*
G01*
X87496999Y-93290000D01*
G75*
G02*
X87247000Y-93040001I0J249999D01*
G01*
G37*
G36*
G01*
X87247000Y-94310001D02*
X87247000Y-93789999D01*
G75*
G02*
X87496999Y-93540000I249999J0D01*
G01*
X88017001Y-93540000D01*
G75*
G02*
X88267000Y-93789999I0J-249999D01*
G01*
X88267000Y-94310001D01*
G75*
G02*
X88017001Y-94560000I-249999J0D01*
G01*
X87496999Y-94560000D01*
G75*
G02*
X87247000Y-94310001I0J249999D01*
G01*
G37*
G36*
G01*
X85977000Y-91770001D02*
X85977000Y-91249999D01*
G75*
G02*
X86226999Y-91000000I249999J0D01*
G01*
X86747001Y-91000000D01*
G75*
G02*
X86997000Y-91249999I0J-249999D01*
G01*
X86997000Y-91770001D01*
G75*
G02*
X86747001Y-92020000I-249999J0D01*
G01*
X86226999Y-92020000D01*
G75*
G02*
X85977000Y-91770001I0J249999D01*
G01*
G37*
G36*
G01*
X85977000Y-93040001D02*
X85977000Y-92519999D01*
G75*
G02*
X86226999Y-92270000I249999J0D01*
G01*
X86747001Y-92270000D01*
G75*
G02*
X86997000Y-92519999I0J-249999D01*
G01*
X86997000Y-93040001D01*
G75*
G02*
X86747001Y-93290000I-249999J0D01*
G01*
X86226999Y-93290000D01*
G75*
G02*
X85977000Y-93040001I0J249999D01*
G01*
G37*
G36*
G01*
X85977000Y-94310001D02*
X85977000Y-93789999D01*
G75*
G02*
X86226999Y-93540000I249999J0D01*
G01*
X86747001Y-93540000D01*
G75*
G02*
X86997000Y-93789999I0J-249999D01*
G01*
X86997000Y-94310001D01*
G75*
G02*
X86747001Y-94560000I-249999J0D01*
G01*
X86226999Y-94560000D01*
G75*
G02*
X85977000Y-94310001I0J249999D01*
G01*
G37*
G36*
G01*
X84707000Y-91770001D02*
X84707000Y-91249999D01*
G75*
G02*
X84956999Y-91000000I249999J0D01*
G01*
X85477001Y-91000000D01*
G75*
G02*
X85727000Y-91249999I0J-249999D01*
G01*
X85727000Y-91770001D01*
G75*
G02*
X85477001Y-92020000I-249999J0D01*
G01*
X84956999Y-92020000D01*
G75*
G02*
X84707000Y-91770001I0J249999D01*
G01*
G37*
G36*
G01*
X84707000Y-93040001D02*
X84707000Y-92519999D01*
G75*
G02*
X84956999Y-92270000I249999J0D01*
G01*
X85477001Y-92270000D01*
G75*
G02*
X85727000Y-92519999I0J-249999D01*
G01*
X85727000Y-93040001D01*
G75*
G02*
X85477001Y-93290000I-249999J0D01*
G01*
X84956999Y-93290000D01*
G75*
G02*
X84707000Y-93040001I0J249999D01*
G01*
G37*
G36*
G01*
X84707000Y-94310001D02*
X84707000Y-93789999D01*
G75*
G02*
X84956999Y-93540000I249999J0D01*
G01*
X85477001Y-93540000D01*
G75*
G02*
X85727000Y-93789999I0J-249999D01*
G01*
X85727000Y-94310001D01*
G75*
G02*
X85477001Y-94560000I-249999J0D01*
G01*
X84956999Y-94560000D01*
G75*
G02*
X84707000Y-94310001I0J249999D01*
G01*
G37*
G36*
G01*
X84587000Y-95605000D02*
X84587000Y-94930000D01*
G75*
G02*
X84637000Y-94880000I50000J0D01*
G01*
X84737000Y-94880000D01*
G75*
G02*
X84787000Y-94930000I0J-50000D01*
G01*
X84787000Y-95605000D01*
G75*
G02*
X84737000Y-95655000I-50000J0D01*
G01*
X84637000Y-95655000D01*
G75*
G02*
X84587000Y-95605000I0J50000D01*
G01*
G37*
G36*
G01*
X84987000Y-95605000D02*
X84987000Y-94930000D01*
G75*
G02*
X85037000Y-94880000I50000J0D01*
G01*
X85137000Y-94880000D01*
G75*
G02*
X85187000Y-94930000I0J-50000D01*
G01*
X85187000Y-95605000D01*
G75*
G02*
X85137000Y-95655000I-50000J0D01*
G01*
X85037000Y-95655000D01*
G75*
G02*
X84987000Y-95605000I0J50000D01*
G01*
G37*
G36*
G01*
X85387000Y-95605000D02*
X85387000Y-94930000D01*
G75*
G02*
X85437000Y-94880000I50000J0D01*
G01*
X85537000Y-94880000D01*
G75*
G02*
X85587000Y-94930000I0J-50000D01*
G01*
X85587000Y-95605000D01*
G75*
G02*
X85537000Y-95655000I-50000J0D01*
G01*
X85437000Y-95655000D01*
G75*
G02*
X85387000Y-95605000I0J50000D01*
G01*
G37*
G36*
G01*
X85787000Y-95605000D02*
X85787000Y-94930000D01*
G75*
G02*
X85837000Y-94880000I50000J0D01*
G01*
X85937000Y-94880000D01*
G75*
G02*
X85987000Y-94930000I0J-50000D01*
G01*
X85987000Y-95605000D01*
G75*
G02*
X85937000Y-95655000I-50000J0D01*
G01*
X85837000Y-95655000D01*
G75*
G02*
X85787000Y-95605000I0J50000D01*
G01*
G37*
G36*
G01*
X86187000Y-95605000D02*
X86187000Y-94930000D01*
G75*
G02*
X86237000Y-94880000I50000J0D01*
G01*
X86337000Y-94880000D01*
G75*
G02*
X86387000Y-94930000I0J-50000D01*
G01*
X86387000Y-95605000D01*
G75*
G02*
X86337000Y-95655000I-50000J0D01*
G01*
X86237000Y-95655000D01*
G75*
G02*
X86187000Y-95605000I0J50000D01*
G01*
G37*
G36*
G01*
X86587000Y-95605000D02*
X86587000Y-94930000D01*
G75*
G02*
X86637000Y-94880000I50000J0D01*
G01*
X86737000Y-94880000D01*
G75*
G02*
X86787000Y-94930000I0J-50000D01*
G01*
X86787000Y-95605000D01*
G75*
G02*
X86737000Y-95655000I-50000J0D01*
G01*
X86637000Y-95655000D01*
G75*
G02*
X86587000Y-95605000I0J50000D01*
G01*
G37*
G36*
G01*
X86987000Y-95605000D02*
X86987000Y-94930000D01*
G75*
G02*
X87037000Y-94880000I50000J0D01*
G01*
X87137000Y-94880000D01*
G75*
G02*
X87187000Y-94930000I0J-50000D01*
G01*
X87187000Y-95605000D01*
G75*
G02*
X87137000Y-95655000I-50000J0D01*
G01*
X87037000Y-95655000D01*
G75*
G02*
X86987000Y-95605000I0J50000D01*
G01*
G37*
G36*
G01*
X87387000Y-95605000D02*
X87387000Y-94930000D01*
G75*
G02*
X87437000Y-94880000I50000J0D01*
G01*
X87537000Y-94880000D01*
G75*
G02*
X87587000Y-94930000I0J-50000D01*
G01*
X87587000Y-95605000D01*
G75*
G02*
X87537000Y-95655000I-50000J0D01*
G01*
X87437000Y-95655000D01*
G75*
G02*
X87387000Y-95605000I0J50000D01*
G01*
G37*
G36*
G01*
X87787000Y-95605000D02*
X87787000Y-94930000D01*
G75*
G02*
X87837000Y-94880000I50000J0D01*
G01*
X87937000Y-94880000D01*
G75*
G02*
X87987000Y-94930000I0J-50000D01*
G01*
X87987000Y-95605000D01*
G75*
G02*
X87937000Y-95655000I-50000J0D01*
G01*
X87837000Y-95655000D01*
G75*
G02*
X87787000Y-95605000I0J50000D01*
G01*
G37*
G36*
G01*
X88187000Y-95605000D02*
X88187000Y-94930000D01*
G75*
G02*
X88237000Y-94880000I50000J0D01*
G01*
X88337000Y-94880000D01*
G75*
G02*
X88387000Y-94930000I0J-50000D01*
G01*
X88387000Y-95605000D01*
G75*
G02*
X88337000Y-95655000I-50000J0D01*
G01*
X88237000Y-95655000D01*
G75*
G02*
X88187000Y-95605000I0J50000D01*
G01*
G37*
G36*
G01*
X88587000Y-94630000D02*
X88587000Y-94530000D01*
G75*
G02*
X88637000Y-94480000I50000J0D01*
G01*
X89312000Y-94480000D01*
G75*
G02*
X89362000Y-94530000I0J-50000D01*
G01*
X89362000Y-94630000D01*
G75*
G02*
X89312000Y-94680000I-50000J0D01*
G01*
X88637000Y-94680000D01*
G75*
G02*
X88587000Y-94630000I0J50000D01*
G01*
G37*
G36*
G01*
X88587000Y-94230000D02*
X88587000Y-94130000D01*
G75*
G02*
X88637000Y-94080000I50000J0D01*
G01*
X89312000Y-94080000D01*
G75*
G02*
X89362000Y-94130000I0J-50000D01*
G01*
X89362000Y-94230000D01*
G75*
G02*
X89312000Y-94280000I-50000J0D01*
G01*
X88637000Y-94280000D01*
G75*
G02*
X88587000Y-94230000I0J50000D01*
G01*
G37*
G36*
G01*
X88587000Y-93830000D02*
X88587000Y-93730000D01*
G75*
G02*
X88637000Y-93680000I50000J0D01*
G01*
X89312000Y-93680000D01*
G75*
G02*
X89362000Y-93730000I0J-50000D01*
G01*
X89362000Y-93830000D01*
G75*
G02*
X89312000Y-93880000I-50000J0D01*
G01*
X88637000Y-93880000D01*
G75*
G02*
X88587000Y-93830000I0J50000D01*
G01*
G37*
G36*
G01*
X88587000Y-93430000D02*
X88587000Y-93330000D01*
G75*
G02*
X88637000Y-93280000I50000J0D01*
G01*
X89312000Y-93280000D01*
G75*
G02*
X89362000Y-93330000I0J-50000D01*
G01*
X89362000Y-93430000D01*
G75*
G02*
X89312000Y-93480000I-50000J0D01*
G01*
X88637000Y-93480000D01*
G75*
G02*
X88587000Y-93430000I0J50000D01*
G01*
G37*
G36*
G01*
X88587000Y-93030000D02*
X88587000Y-92930000D01*
G75*
G02*
X88637000Y-92880000I50000J0D01*
G01*
X89312000Y-92880000D01*
G75*
G02*
X89362000Y-92930000I0J-50000D01*
G01*
X89362000Y-93030000D01*
G75*
G02*
X89312000Y-93080000I-50000J0D01*
G01*
X88637000Y-93080000D01*
G75*
G02*
X88587000Y-93030000I0J50000D01*
G01*
G37*
G36*
G01*
X88587000Y-92630000D02*
X88587000Y-92530000D01*
G75*
G02*
X88637000Y-92480000I50000J0D01*
G01*
X89312000Y-92480000D01*
G75*
G02*
X89362000Y-92530000I0J-50000D01*
G01*
X89362000Y-92630000D01*
G75*
G02*
X89312000Y-92680000I-50000J0D01*
G01*
X88637000Y-92680000D01*
G75*
G02*
X88587000Y-92630000I0J50000D01*
G01*
G37*
G36*
G01*
X88587000Y-92230000D02*
X88587000Y-92130000D01*
G75*
G02*
X88637000Y-92080000I50000J0D01*
G01*
X89312000Y-92080000D01*
G75*
G02*
X89362000Y-92130000I0J-50000D01*
G01*
X89362000Y-92230000D01*
G75*
G02*
X89312000Y-92280000I-50000J0D01*
G01*
X88637000Y-92280000D01*
G75*
G02*
X88587000Y-92230000I0J50000D01*
G01*
G37*
G36*
G01*
X88587000Y-91830000D02*
X88587000Y-91730000D01*
G75*
G02*
X88637000Y-91680000I50000J0D01*
G01*
X89312000Y-91680000D01*
G75*
G02*
X89362000Y-91730000I0J-50000D01*
G01*
X89362000Y-91830000D01*
G75*
G02*
X89312000Y-91880000I-50000J0D01*
G01*
X88637000Y-91880000D01*
G75*
G02*
X88587000Y-91830000I0J50000D01*
G01*
G37*
G36*
G01*
X88587000Y-91430000D02*
X88587000Y-91330000D01*
G75*
G02*
X88637000Y-91280000I50000J0D01*
G01*
X89312000Y-91280000D01*
G75*
G02*
X89362000Y-91330000I0J-50000D01*
G01*
X89362000Y-91430000D01*
G75*
G02*
X89312000Y-91480000I-50000J0D01*
G01*
X88637000Y-91480000D01*
G75*
G02*
X88587000Y-91430000I0J50000D01*
G01*
G37*
G36*
G01*
X88587000Y-91030000D02*
X88587000Y-90930000D01*
G75*
G02*
X88637000Y-90880000I50000J0D01*
G01*
X89312000Y-90880000D01*
G75*
G02*
X89362000Y-90930000I0J-50000D01*
G01*
X89362000Y-91030000D01*
G75*
G02*
X89312000Y-91080000I-50000J0D01*
G01*
X88637000Y-91080000D01*
G75*
G02*
X88587000Y-91030000I0J50000D01*
G01*
G37*
G36*
G01*
X88187000Y-90630000D02*
X88187000Y-89955000D01*
G75*
G02*
X88237000Y-89905000I50000J0D01*
G01*
X88337000Y-89905000D01*
G75*
G02*
X88387000Y-89955000I0J-50000D01*
G01*
X88387000Y-90630000D01*
G75*
G02*
X88337000Y-90680000I-50000J0D01*
G01*
X88237000Y-90680000D01*
G75*
G02*
X88187000Y-90630000I0J50000D01*
G01*
G37*
G36*
G01*
X87787000Y-90630000D02*
X87787000Y-89955000D01*
G75*
G02*
X87837000Y-89905000I50000J0D01*
G01*
X87937000Y-89905000D01*
G75*
G02*
X87987000Y-89955000I0J-50000D01*
G01*
X87987000Y-90630000D01*
G75*
G02*
X87937000Y-90680000I-50000J0D01*
G01*
X87837000Y-90680000D01*
G75*
G02*
X87787000Y-90630000I0J50000D01*
G01*
G37*
G36*
G01*
X87387000Y-90630000D02*
X87387000Y-89955000D01*
G75*
G02*
X87437000Y-89905000I50000J0D01*
G01*
X87537000Y-89905000D01*
G75*
G02*
X87587000Y-89955000I0J-50000D01*
G01*
X87587000Y-90630000D01*
G75*
G02*
X87537000Y-90680000I-50000J0D01*
G01*
X87437000Y-90680000D01*
G75*
G02*
X87387000Y-90630000I0J50000D01*
G01*
G37*
G36*
G01*
X86987000Y-90630000D02*
X86987000Y-89955000D01*
G75*
G02*
X87037000Y-89905000I50000J0D01*
G01*
X87137000Y-89905000D01*
G75*
G02*
X87187000Y-89955000I0J-50000D01*
G01*
X87187000Y-90630000D01*
G75*
G02*
X87137000Y-90680000I-50000J0D01*
G01*
X87037000Y-90680000D01*
G75*
G02*
X86987000Y-90630000I0J50000D01*
G01*
G37*
G36*
G01*
X86587000Y-90630000D02*
X86587000Y-89955000D01*
G75*
G02*
X86637000Y-89905000I50000J0D01*
G01*
X86737000Y-89905000D01*
G75*
G02*
X86787000Y-89955000I0J-50000D01*
G01*
X86787000Y-90630000D01*
G75*
G02*
X86737000Y-90680000I-50000J0D01*
G01*
X86637000Y-90680000D01*
G75*
G02*
X86587000Y-90630000I0J50000D01*
G01*
G37*
G36*
G01*
X86187000Y-90630000D02*
X86187000Y-89955000D01*
G75*
G02*
X86237000Y-89905000I50000J0D01*
G01*
X86337000Y-89905000D01*
G75*
G02*
X86387000Y-89955000I0J-50000D01*
G01*
X86387000Y-90630000D01*
G75*
G02*
X86337000Y-90680000I-50000J0D01*
G01*
X86237000Y-90680000D01*
G75*
G02*
X86187000Y-90630000I0J50000D01*
G01*
G37*
G36*
G01*
X85787000Y-90630000D02*
X85787000Y-89955000D01*
G75*
G02*
X85837000Y-89905000I50000J0D01*
G01*
X85937000Y-89905000D01*
G75*
G02*
X85987000Y-89955000I0J-50000D01*
G01*
X85987000Y-90630000D01*
G75*
G02*
X85937000Y-90680000I-50000J0D01*
G01*
X85837000Y-90680000D01*
G75*
G02*
X85787000Y-90630000I0J50000D01*
G01*
G37*
G36*
G01*
X85387000Y-90630000D02*
X85387000Y-89955000D01*
G75*
G02*
X85437000Y-89905000I50000J0D01*
G01*
X85537000Y-89905000D01*
G75*
G02*
X85587000Y-89955000I0J-50000D01*
G01*
X85587000Y-90630000D01*
G75*
G02*
X85537000Y-90680000I-50000J0D01*
G01*
X85437000Y-90680000D01*
G75*
G02*
X85387000Y-90630000I0J50000D01*
G01*
G37*
G36*
G01*
X84987000Y-90630000D02*
X84987000Y-89955000D01*
G75*
G02*
X85037000Y-89905000I50000J0D01*
G01*
X85137000Y-89905000D01*
G75*
G02*
X85187000Y-89955000I0J-50000D01*
G01*
X85187000Y-90630000D01*
G75*
G02*
X85137000Y-90680000I-50000J0D01*
G01*
X85037000Y-90680000D01*
G75*
G02*
X84987000Y-90630000I0J50000D01*
G01*
G37*
G36*
G01*
X84587000Y-90630000D02*
X84587000Y-89955000D01*
G75*
G02*
X84637000Y-89905000I50000J0D01*
G01*
X84737000Y-89905000D01*
G75*
G02*
X84787000Y-89955000I0J-50000D01*
G01*
X84787000Y-90630000D01*
G75*
G02*
X84737000Y-90680000I-50000J0D01*
G01*
X84637000Y-90680000D01*
G75*
G02*
X84587000Y-90630000I0J50000D01*
G01*
G37*
G36*
G01*
X83612000Y-91030000D02*
X83612000Y-90930000D01*
G75*
G02*
X83662000Y-90880000I50000J0D01*
G01*
X84337000Y-90880000D01*
G75*
G02*
X84387000Y-90930000I0J-50000D01*
G01*
X84387000Y-91030000D01*
G75*
G02*
X84337000Y-91080000I-50000J0D01*
G01*
X83662000Y-91080000D01*
G75*
G02*
X83612000Y-91030000I0J50000D01*
G01*
G37*
G36*
G01*
X83612000Y-91430000D02*
X83612000Y-91330000D01*
G75*
G02*
X83662000Y-91280000I50000J0D01*
G01*
X84337000Y-91280000D01*
G75*
G02*
X84387000Y-91330000I0J-50000D01*
G01*
X84387000Y-91430000D01*
G75*
G02*
X84337000Y-91480000I-50000J0D01*
G01*
X83662000Y-91480000D01*
G75*
G02*
X83612000Y-91430000I0J50000D01*
G01*
G37*
G36*
G01*
X83612000Y-91830000D02*
X83612000Y-91730000D01*
G75*
G02*
X83662000Y-91680000I50000J0D01*
G01*
X84337000Y-91680000D01*
G75*
G02*
X84387000Y-91730000I0J-50000D01*
G01*
X84387000Y-91830000D01*
G75*
G02*
X84337000Y-91880000I-50000J0D01*
G01*
X83662000Y-91880000D01*
G75*
G02*
X83612000Y-91830000I0J50000D01*
G01*
G37*
G36*
G01*
X83612000Y-92230000D02*
X83612000Y-92130000D01*
G75*
G02*
X83662000Y-92080000I50000J0D01*
G01*
X84337000Y-92080000D01*
G75*
G02*
X84387000Y-92130000I0J-50000D01*
G01*
X84387000Y-92230000D01*
G75*
G02*
X84337000Y-92280000I-50000J0D01*
G01*
X83662000Y-92280000D01*
G75*
G02*
X83612000Y-92230000I0J50000D01*
G01*
G37*
G36*
G01*
X83612000Y-92630000D02*
X83612000Y-92530000D01*
G75*
G02*
X83662000Y-92480000I50000J0D01*
G01*
X84337000Y-92480000D01*
G75*
G02*
X84387000Y-92530000I0J-50000D01*
G01*
X84387000Y-92630000D01*
G75*
G02*
X84337000Y-92680000I-50000J0D01*
G01*
X83662000Y-92680000D01*
G75*
G02*
X83612000Y-92630000I0J50000D01*
G01*
G37*
G36*
G01*
X83612000Y-93030000D02*
X83612000Y-92930000D01*
G75*
G02*
X83662000Y-92880000I50000J0D01*
G01*
X84337000Y-92880000D01*
G75*
G02*
X84387000Y-92930000I0J-50000D01*
G01*
X84387000Y-93030000D01*
G75*
G02*
X84337000Y-93080000I-50000J0D01*
G01*
X83662000Y-93080000D01*
G75*
G02*
X83612000Y-93030000I0J50000D01*
G01*
G37*
G36*
G01*
X83612000Y-93430000D02*
X83612000Y-93330000D01*
G75*
G02*
X83662000Y-93280000I50000J0D01*
G01*
X84337000Y-93280000D01*
G75*
G02*
X84387000Y-93330000I0J-50000D01*
G01*
X84387000Y-93430000D01*
G75*
G02*
X84337000Y-93480000I-50000J0D01*
G01*
X83662000Y-93480000D01*
G75*
G02*
X83612000Y-93430000I0J50000D01*
G01*
G37*
G36*
G01*
X83612000Y-93830000D02*
X83612000Y-93730000D01*
G75*
G02*
X83662000Y-93680000I50000J0D01*
G01*
X84337000Y-93680000D01*
G75*
G02*
X84387000Y-93730000I0J-50000D01*
G01*
X84387000Y-93830000D01*
G75*
G02*
X84337000Y-93880000I-50000J0D01*
G01*
X83662000Y-93880000D01*
G75*
G02*
X83612000Y-93830000I0J50000D01*
G01*
G37*
G36*
G01*
X83612000Y-94230000D02*
X83612000Y-94130000D01*
G75*
G02*
X83662000Y-94080000I50000J0D01*
G01*
X84337000Y-94080000D01*
G75*
G02*
X84387000Y-94130000I0J-50000D01*
G01*
X84387000Y-94230000D01*
G75*
G02*
X84337000Y-94280000I-50000J0D01*
G01*
X83662000Y-94280000D01*
G75*
G02*
X83612000Y-94230000I0J50000D01*
G01*
G37*
G36*
G01*
X83612000Y-94630000D02*
X83612000Y-94530000D01*
G75*
G02*
X83662000Y-94480000I50000J0D01*
G01*
X84337000Y-94480000D01*
G75*
G02*
X84387000Y-94530000I0J-50000D01*
G01*
X84387000Y-94630000D01*
G75*
G02*
X84337000Y-94680000I-50000J0D01*
G01*
X83662000Y-94680000D01*
G75*
G02*
X83612000Y-94630000I0J50000D01*
G01*
G37*
M02*
