G04 #@! TF.GenerationSoftware,KiCad,Pcbnew,(5.1.10)-1*
G04 #@! TF.CreationDate,2023-01-31T14:41:16+02:00*
G04 #@! TF.ProjectId,voltmeter,766f6c74-6d65-4746-9572-2e6b69636164,rev?*
G04 #@! TF.SameCoordinates,Original*
G04 #@! TF.FileFunction,Soldermask,Top*
G04 #@! TF.FilePolarity,Negative*
%FSLAX46Y46*%
G04 Gerber Fmt 4.6, Leading zero omitted, Abs format (unit mm)*
G04 Created by KiCad (PCBNEW (5.1.10)-1) date 2023-01-31 14:41:16*
%MOMM*%
%LPD*%
G01*
G04 APERTURE LIST*
G04 #@! TA.AperFunction,Profile*
%ADD10C,0.050000*%
G04 #@! TD*
%ADD11O,1.700000X1.700000*%
%ADD12R,1.700000X1.700000*%
%ADD13C,1.524000*%
G04 APERTURE END LIST*
D10*
X52578000Y-78048000D02*
X52578000Y-86048000D01*
X50578000Y-86048000D02*
X50578000Y-92048000D01*
X52578000Y-86048000D02*
X50578000Y-86048000D01*
X52578000Y-92048000D02*
X50578000Y-92048000D01*
X52578000Y-92048000D02*
X52578000Y-100048000D01*
X93578000Y-92048000D02*
X93578000Y-100048000D01*
X95578000Y-92048000D02*
X93578000Y-92048000D01*
X95578000Y-86048000D02*
X93578000Y-86048000D01*
X95578000Y-86048000D02*
X95578000Y-92048000D01*
X52578000Y-100048000D02*
X93578000Y-100048000D01*
X93578000Y-78048000D02*
X93578000Y-86048000D01*
X52578000Y-78048000D02*
X93578000Y-78048000D01*
D11*
X92075000Y-92272000D03*
X92075000Y-89732000D03*
X92075000Y-87192000D03*
D12*
X92075000Y-84652000D03*
D11*
X53975000Y-79521200D03*
X53975000Y-82061200D03*
X53975000Y-84601200D03*
X53975000Y-87141200D03*
D12*
X53975000Y-89681200D03*
D13*
X77216000Y-98036380D03*
X74676000Y-98130360D03*
X72136000Y-98044000D03*
X69596000Y-98044000D03*
X67056000Y-98044000D03*
X79756000Y-90424000D03*
X77216000Y-90424000D03*
X74676000Y-90424000D03*
X67056000Y-90424000D03*
X69596000Y-90424000D03*
X72136000Y-90424000D03*
X77216000Y-87897380D03*
X74676000Y-87991360D03*
X72136000Y-87905000D03*
X69596000Y-87905000D03*
X67056000Y-87905000D03*
X79756000Y-80285000D03*
X77216000Y-80285000D03*
X74676000Y-80285000D03*
X67056000Y-80285000D03*
X69596000Y-80285000D03*
X72136000Y-80285000D03*
M02*
