G04 #@! TF.GenerationSoftware,KiCad,Pcbnew,(5.1.10)-1*
G04 #@! TF.CreationDate,2023-01-31T14:41:16+02:00*
G04 #@! TF.ProjectId,voltmeter,766f6c74-6d65-4746-9572-2e6b69636164,rev?*
G04 #@! TF.SameCoordinates,Original*
G04 #@! TF.FileFunction,Legend,Top*
G04 #@! TF.FilePolarity,Positive*
%FSLAX46Y46*%
G04 Gerber Fmt 4.6, Leading zero omitted, Abs format (unit mm)*
G04 Created by KiCad (PCBNEW (5.1.10)-1) date 2023-01-31 14:41:16*
%MOMM*%
%LPD*%
G01*
G04 APERTURE LIST*
G04 #@! TA.AperFunction,Profile*
%ADD10C,0.050000*%
G04 #@! TD*
%ADD11C,0.120000*%
%ADD12C,0.150000*%
%ADD13O,1.700000X1.700000*%
%ADD14R,1.700000X1.700000*%
%ADD15C,1.524000*%
G04 APERTURE END LIST*
D10*
X52578000Y-78048000D02*
X52578000Y-86048000D01*
X50578000Y-86048000D02*
X50578000Y-92048000D01*
X52578000Y-86048000D02*
X50578000Y-86048000D01*
X52578000Y-92048000D02*
X50578000Y-92048000D01*
X52578000Y-92048000D02*
X52578000Y-100048000D01*
X93578000Y-92048000D02*
X93578000Y-100048000D01*
X95578000Y-92048000D02*
X93578000Y-92048000D01*
X95578000Y-86048000D02*
X93578000Y-86048000D01*
X95578000Y-86048000D02*
X95578000Y-92048000D01*
X52578000Y-100048000D02*
X93578000Y-100048000D01*
X93578000Y-78048000D02*
X93578000Y-86048000D01*
X52578000Y-78048000D02*
X93578000Y-78048000D01*
D11*
X90745000Y-85922000D02*
X93405000Y-85922000D01*
X90745000Y-85922000D02*
X90745000Y-93602000D01*
X90745000Y-93602000D02*
X93405000Y-93602000D01*
X93405000Y-85922000D02*
X93405000Y-93602000D01*
X93405000Y-83322000D02*
X93405000Y-84652000D01*
X92075000Y-83322000D02*
X93405000Y-83322000D01*
X55305000Y-88411200D02*
X52645000Y-88411200D01*
X55305000Y-88411200D02*
X55305000Y-78191200D01*
X55305000Y-78191200D02*
X52645000Y-78191200D01*
X52645000Y-88411200D02*
X52645000Y-78191200D01*
X52645000Y-91011200D02*
X52645000Y-89681200D01*
X53975000Y-91011200D02*
X52645000Y-91011200D01*
X62156000Y-89234000D02*
X84656000Y-89234000D01*
X84656000Y-89234000D02*
X84656000Y-99234000D01*
X84656000Y-99234000D02*
X62156000Y-99234000D01*
X62156000Y-99234000D02*
X62156000Y-89234000D01*
X72390000Y-92011500D02*
X74422000Y-92011500D01*
X72390000Y-96202500D02*
X74422000Y-96202500D01*
X72136000Y-93789500D02*
X72136000Y-92265500D01*
X72136000Y-95821500D02*
X72136000Y-94297500D01*
X74676000Y-92265500D02*
X74676000Y-93789500D01*
X74676000Y-94297500D02*
X74676000Y-95821500D01*
X72390000Y-94043500D02*
X74422000Y-94043500D01*
X75946000Y-96329500D02*
G75*
G03*
X75946000Y-96329500I-254000J0D01*
G01*
X78994000Y-92265500D02*
X78994000Y-93789500D01*
X76454000Y-93789500D02*
X76454000Y-92265500D01*
X76708000Y-94043500D02*
X78740000Y-94043500D01*
X78994000Y-94297500D02*
X78994000Y-95821500D01*
X76708000Y-92011500D02*
X78740000Y-92011500D01*
X76708000Y-96202500D02*
X78740000Y-96202500D01*
X76454000Y-95821500D02*
X76454000Y-94297500D01*
X80264000Y-96329500D02*
G75*
G03*
X80264000Y-96329500I-254000J0D01*
G01*
X70358000Y-92265500D02*
X70358000Y-93789500D01*
X67818000Y-93789500D02*
X67818000Y-92265500D01*
X68072000Y-94043500D02*
X70104000Y-94043500D01*
X70358000Y-94297500D02*
X70358000Y-95821500D01*
X68072000Y-92011500D02*
X70104000Y-92011500D01*
X68072000Y-96202500D02*
X70104000Y-96202500D01*
X67818000Y-95821500D02*
X67818000Y-94297500D01*
X71628000Y-96329500D02*
G75*
G03*
X71628000Y-96329500I-254000J0D01*
G01*
X62156000Y-79095000D02*
X84656000Y-79095000D01*
X84656000Y-79095000D02*
X84656000Y-89095000D01*
X84656000Y-89095000D02*
X62156000Y-89095000D01*
X62156000Y-89095000D02*
X62156000Y-79095000D01*
X72390000Y-81872500D02*
X74422000Y-81872500D01*
X72390000Y-86063500D02*
X74422000Y-86063500D01*
X72136000Y-83650500D02*
X72136000Y-82126500D01*
X72136000Y-85682500D02*
X72136000Y-84158500D01*
X74676000Y-82126500D02*
X74676000Y-83650500D01*
X74676000Y-84158500D02*
X74676000Y-85682500D01*
X72390000Y-83904500D02*
X74422000Y-83904500D01*
X75946000Y-86190500D02*
G75*
G03*
X75946000Y-86190500I-254000J0D01*
G01*
X78994000Y-82126500D02*
X78994000Y-83650500D01*
X76454000Y-83650500D02*
X76454000Y-82126500D01*
X76708000Y-83904500D02*
X78740000Y-83904500D01*
X78994000Y-84158500D02*
X78994000Y-85682500D01*
X76708000Y-81872500D02*
X78740000Y-81872500D01*
X76708000Y-86063500D02*
X78740000Y-86063500D01*
X76454000Y-85682500D02*
X76454000Y-84158500D01*
X80264000Y-86190500D02*
G75*
G03*
X80264000Y-86190500I-254000J0D01*
G01*
X70358000Y-82126500D02*
X70358000Y-83650500D01*
X67818000Y-83650500D02*
X67818000Y-82126500D01*
X68072000Y-83904500D02*
X70104000Y-83904500D01*
X70358000Y-84158500D02*
X70358000Y-85682500D01*
X68072000Y-81872500D02*
X70104000Y-81872500D01*
X68072000Y-86063500D02*
X70104000Y-86063500D01*
X67818000Y-85682500D02*
X67818000Y-84158500D01*
X71628000Y-86190500D02*
G75*
G03*
X71628000Y-86190500I-254000J0D01*
G01*
D12*
X91741666Y-81334380D02*
X91741666Y-82048666D01*
X91694047Y-82191523D01*
X91598809Y-82286761D01*
X91455952Y-82334380D01*
X91360714Y-82334380D01*
X92170238Y-81429619D02*
X92217857Y-81382000D01*
X92313095Y-81334380D01*
X92551190Y-81334380D01*
X92646428Y-81382000D01*
X92694047Y-81429619D01*
X92741666Y-81524857D01*
X92741666Y-81620095D01*
X92694047Y-81762952D01*
X92122619Y-82334380D01*
X92741666Y-82334380D01*
X53641666Y-91903580D02*
X53641666Y-92617866D01*
X53594047Y-92760723D01*
X53498809Y-92855961D01*
X53355952Y-92903580D01*
X53260714Y-92903580D01*
X54641666Y-92903580D02*
X54070238Y-92903580D01*
X54355952Y-92903580D02*
X54355952Y-91903580D01*
X54260714Y-92046438D01*
X54165476Y-92141676D01*
X54070238Y-92189295D01*
X62738095Y-90130380D02*
X62738095Y-90939904D01*
X62785714Y-91035142D01*
X62833333Y-91082761D01*
X62928571Y-91130380D01*
X63119047Y-91130380D01*
X63214285Y-91082761D01*
X63261904Y-91035142D01*
X63309523Y-90939904D01*
X63309523Y-90130380D01*
X63690476Y-90130380D02*
X64309523Y-90130380D01*
X63976190Y-90511333D01*
X64119047Y-90511333D01*
X64214285Y-90558952D01*
X64261904Y-90606571D01*
X64309523Y-90701809D01*
X64309523Y-90939904D01*
X64261904Y-91035142D01*
X64214285Y-91082761D01*
X64119047Y-91130380D01*
X63833333Y-91130380D01*
X63738095Y-91082761D01*
X63690476Y-91035142D01*
X62738095Y-79843380D02*
X62738095Y-80652904D01*
X62785714Y-80748142D01*
X62833333Y-80795761D01*
X62928571Y-80843380D01*
X63119047Y-80843380D01*
X63214285Y-80795761D01*
X63261904Y-80748142D01*
X63309523Y-80652904D01*
X63309523Y-79843380D01*
X63738095Y-79938619D02*
X63785714Y-79891000D01*
X63880952Y-79843380D01*
X64119047Y-79843380D01*
X64214285Y-79891000D01*
X64261904Y-79938619D01*
X64309523Y-80033857D01*
X64309523Y-80129095D01*
X64261904Y-80271952D01*
X63690476Y-80843380D01*
X64309523Y-80843380D01*
%LPC*%
D13*
X92075000Y-92272000D03*
X92075000Y-89732000D03*
X92075000Y-87192000D03*
D14*
X92075000Y-84652000D03*
D13*
X53975000Y-79521200D03*
X53975000Y-82061200D03*
X53975000Y-84601200D03*
X53975000Y-87141200D03*
D14*
X53975000Y-89681200D03*
D15*
X77216000Y-98036380D03*
X74676000Y-98130360D03*
X72136000Y-98044000D03*
X69596000Y-98044000D03*
X67056000Y-98044000D03*
X79756000Y-90424000D03*
X77216000Y-90424000D03*
X74676000Y-90424000D03*
X67056000Y-90424000D03*
X69596000Y-90424000D03*
X72136000Y-90424000D03*
X77216000Y-87897380D03*
X74676000Y-87991360D03*
X72136000Y-87905000D03*
X69596000Y-87905000D03*
X67056000Y-87905000D03*
X79756000Y-80285000D03*
X77216000Y-80285000D03*
X74676000Y-80285000D03*
X67056000Y-80285000D03*
X69596000Y-80285000D03*
X72136000Y-80285000D03*
M02*
