G04 #@! TF.GenerationSoftware,KiCad,Pcbnew,(5.1.10)-1*
G04 #@! TF.CreationDate,2023-01-31T14:41:16+02:00*
G04 #@! TF.ProjectId,voltmeter,766f6c74-6d65-4746-9572-2e6b69636164,rev?*
G04 #@! TF.SameCoordinates,Original*
G04 #@! TF.FileFunction,Legend,Bot*
G04 #@! TF.FilePolarity,Positive*
%FSLAX46Y46*%
G04 Gerber Fmt 4.6, Leading zero omitted, Abs format (unit mm)*
G04 Created by KiCad (PCBNEW (5.1.10)-1) date 2023-01-31 14:41:16*
%MOMM*%
%LPD*%
G01*
G04 APERTURE LIST*
G04 #@! TA.AperFunction,Profile*
%ADD10C,0.050000*%
G04 #@! TD*
%ADD11C,0.120000*%
%ADD12C,0.150000*%
%ADD13O,1.700000X1.700000*%
%ADD14R,1.700000X1.700000*%
%ADD15C,1.524000*%
%ADD16R,1.200000X1.400000*%
%ADD17R,0.900000X0.400000*%
%ADD18C,0.100000*%
%ADD19R,1.300000X0.900000*%
%ADD20R,3.800000X3.800000*%
G04 APERTURE END LIST*
D10*
X52578000Y-78048000D02*
X52578000Y-86048000D01*
X50578000Y-86048000D02*
X50578000Y-92048000D01*
X52578000Y-86048000D02*
X50578000Y-86048000D01*
X52578000Y-92048000D02*
X50578000Y-92048000D01*
X52578000Y-92048000D02*
X52578000Y-100048000D01*
X93578000Y-92048000D02*
X93578000Y-100048000D01*
X95578000Y-92048000D02*
X93578000Y-92048000D01*
X95578000Y-86048000D02*
X93578000Y-86048000D01*
X95578000Y-86048000D02*
X95578000Y-92048000D01*
X52578000Y-100048000D02*
X93578000Y-100048000D01*
X93578000Y-78048000D02*
X93578000Y-86048000D01*
X52578000Y-78048000D02*
X93578000Y-78048000D01*
D11*
X90183700Y-99174200D02*
X90183700Y-95174200D01*
X93483700Y-99174200D02*
X90183700Y-99174200D01*
X74414700Y-93333300D02*
X73614700Y-93333300D01*
X74414700Y-96773300D02*
X73614700Y-96773300D01*
X79021000Y-95842248D02*
X79021000Y-96364752D01*
X80491000Y-95842248D02*
X80491000Y-96364752D01*
X81383200Y-96573948D02*
X81383200Y-97096452D01*
X82853200Y-96573948D02*
X82853200Y-97096452D01*
X82396000Y-91949052D02*
X82396000Y-91426548D01*
X80926000Y-91949052D02*
X80926000Y-91426548D01*
X59064000Y-96048000D02*
X59064000Y-94738000D01*
X59064000Y-94738000D02*
X56344000Y-94738000D01*
X55204000Y-99228000D02*
X56344000Y-99228000D01*
X59064000Y-99458000D02*
X59064000Y-98148000D01*
X56344000Y-99458000D02*
X59064000Y-99458000D01*
X56344000Y-99458000D02*
X56344000Y-99228000D01*
X56344000Y-94738000D02*
X56344000Y-94968000D01*
X60225000Y-97450248D02*
X60225000Y-97972752D01*
X61695000Y-97450248D02*
X61695000Y-97972752D01*
X52986000Y-97493248D02*
X52986000Y-98015752D01*
X54456000Y-97493248D02*
X54456000Y-98015752D01*
X89864000Y-87961252D02*
X89864000Y-87438748D01*
X88444000Y-87961252D02*
X88444000Y-87438748D01*
X89889000Y-84151252D02*
X89889000Y-83628748D01*
X88419000Y-84151252D02*
X88419000Y-83628748D01*
X85825000Y-86288752D02*
X85825000Y-85766248D01*
X84355000Y-86288752D02*
X84355000Y-85766248D01*
X88339652Y-97823500D02*
X87817148Y-97823500D01*
X88339652Y-99293500D02*
X87817148Y-99293500D01*
X61695000Y-80180064D02*
X61695000Y-79725936D01*
X60225000Y-80180064D02*
X60225000Y-79725936D01*
X61695000Y-83974064D02*
X61695000Y-83519936D01*
X60225000Y-83974064D02*
X60225000Y-83519936D01*
X59790000Y-80180064D02*
X59790000Y-79725936D01*
X58320000Y-80180064D02*
X58320000Y-79725936D01*
X59790000Y-85117064D02*
X59790000Y-84662936D01*
X58320000Y-85117064D02*
X58320000Y-84662936D01*
X57758000Y-80164064D02*
X57758000Y-79709936D01*
X56288000Y-80164064D02*
X56288000Y-79709936D01*
X57758000Y-83990064D02*
X57758000Y-83535936D01*
X56288000Y-83990064D02*
X56288000Y-83535936D01*
X77400100Y-82766900D02*
X76600100Y-82766900D01*
X77400100Y-86206900D02*
X76600100Y-86206900D01*
X86387000Y-86292064D02*
X86387000Y-85837936D01*
X87857000Y-86292064D02*
X87857000Y-85837936D01*
X88647000Y-95390000D02*
X89097000Y-95390000D01*
X89097000Y-95390000D02*
X89097000Y-94940000D01*
X84327000Y-90170000D02*
X83877000Y-90170000D01*
X83877000Y-90170000D02*
X83877000Y-90620000D01*
X88647000Y-90170000D02*
X89097000Y-90170000D01*
X89097000Y-90170000D02*
X89097000Y-90620000D01*
X84327000Y-95390000D02*
X83877000Y-95390000D01*
D12*
X92932190Y-94407190D02*
X92932190Y-94883380D01*
X93265523Y-93883380D02*
X92932190Y-94407190D01*
X92598857Y-93883380D01*
X91741714Y-94883380D02*
X92313142Y-94883380D01*
X92027428Y-94883380D02*
X92027428Y-93883380D01*
X92122666Y-94026238D01*
X92217904Y-94121476D01*
X92313142Y-94169095D01*
X71391376Y-96572480D02*
X71724709Y-96096290D01*
X71962804Y-96572480D02*
X71962804Y-95572480D01*
X71581852Y-95572480D01*
X71486614Y-95620100D01*
X71438995Y-95667719D01*
X71391376Y-95762957D01*
X71391376Y-95905814D01*
X71438995Y-96001052D01*
X71486614Y-96048671D01*
X71581852Y-96096290D01*
X71962804Y-96096290D01*
X70962804Y-96572480D02*
X70962804Y-95572480D01*
X70391376Y-96572480D01*
X70391376Y-95572480D01*
X69962804Y-95667719D02*
X69915185Y-95620100D01*
X69819947Y-95572480D01*
X69581852Y-95572480D01*
X69486614Y-95620100D01*
X69438995Y-95667719D01*
X69391376Y-95762957D01*
X69391376Y-95858195D01*
X69438995Y-96001052D01*
X70010423Y-96572480D01*
X69391376Y-96572480D01*
X79973466Y-99156942D02*
X80021085Y-99204561D01*
X80163942Y-99252180D01*
X80259180Y-99252180D01*
X80402038Y-99204561D01*
X80497276Y-99109323D01*
X80544895Y-99014085D01*
X80592514Y-98823609D01*
X80592514Y-98680752D01*
X80544895Y-98490276D01*
X80497276Y-98395038D01*
X80402038Y-98299800D01*
X80259180Y-98252180D01*
X80163942Y-98252180D01*
X80021085Y-98299800D01*
X79973466Y-98347419D01*
X79402038Y-98680752D02*
X79497276Y-98633133D01*
X79544895Y-98585514D01*
X79592514Y-98490276D01*
X79592514Y-98442657D01*
X79544895Y-98347419D01*
X79497276Y-98299800D01*
X79402038Y-98252180D01*
X79211561Y-98252180D01*
X79116323Y-98299800D01*
X79068704Y-98347419D01*
X79021085Y-98442657D01*
X79021085Y-98490276D01*
X79068704Y-98585514D01*
X79116323Y-98633133D01*
X79211561Y-98680752D01*
X79402038Y-98680752D01*
X79497276Y-98728371D01*
X79544895Y-98775990D01*
X79592514Y-98871228D01*
X79592514Y-99061704D01*
X79544895Y-99156942D01*
X79497276Y-99204561D01*
X79402038Y-99252180D01*
X79211561Y-99252180D01*
X79116323Y-99204561D01*
X79068704Y-99156942D01*
X79021085Y-99061704D01*
X79021085Y-98871228D01*
X79068704Y-98775990D01*
X79116323Y-98728371D01*
X79211561Y-98680752D01*
X84113666Y-97963142D02*
X84161285Y-98010761D01*
X84304142Y-98058380D01*
X84399380Y-98058380D01*
X84542238Y-98010761D01*
X84637476Y-97915523D01*
X84685095Y-97820285D01*
X84732714Y-97629809D01*
X84732714Y-97486952D01*
X84685095Y-97296476D01*
X84637476Y-97201238D01*
X84542238Y-97106000D01*
X84399380Y-97058380D01*
X84304142Y-97058380D01*
X84161285Y-97106000D01*
X84113666Y-97153619D01*
X83780333Y-97058380D02*
X83113666Y-97058380D01*
X83542238Y-98058380D01*
X79821066Y-92438642D02*
X79868685Y-92486261D01*
X80011542Y-92533880D01*
X80106780Y-92533880D01*
X80249638Y-92486261D01*
X80344876Y-92391023D01*
X80392495Y-92295785D01*
X80440114Y-92105309D01*
X80440114Y-91962452D01*
X80392495Y-91771976D01*
X80344876Y-91676738D01*
X80249638Y-91581500D01*
X80106780Y-91533880D01*
X80011542Y-91533880D01*
X79868685Y-91581500D01*
X79821066Y-91629119D01*
X78963923Y-91533880D02*
X79154400Y-91533880D01*
X79249638Y-91581500D01*
X79297257Y-91629119D01*
X79392495Y-91771976D01*
X79440114Y-91962452D01*
X79440114Y-92343404D01*
X79392495Y-92438642D01*
X79344876Y-92486261D01*
X79249638Y-92533880D01*
X79059161Y-92533880D01*
X78963923Y-92486261D01*
X78916304Y-92438642D01*
X78868685Y-92343404D01*
X78868685Y-92105309D01*
X78916304Y-92010071D01*
X78963923Y-91962452D01*
X79059161Y-91914833D01*
X79249638Y-91914833D01*
X79344876Y-91962452D01*
X79392495Y-92010071D01*
X79440114Y-92105309D01*
X58267504Y-93057880D02*
X58267504Y-93867404D01*
X58219885Y-93962642D01*
X58172266Y-94010261D01*
X58077028Y-94057880D01*
X57886552Y-94057880D01*
X57791314Y-94010261D01*
X57743695Y-93962642D01*
X57696076Y-93867404D01*
X57696076Y-93057880D01*
X56791314Y-93391214D02*
X56791314Y-94057880D01*
X57029409Y-93010261D02*
X57267504Y-93724547D01*
X56648457Y-93724547D01*
X63349142Y-97134533D02*
X63396761Y-97086914D01*
X63444380Y-96944057D01*
X63444380Y-96848819D01*
X63396761Y-96705961D01*
X63301523Y-96610723D01*
X63206285Y-96563104D01*
X63015809Y-96515485D01*
X62872952Y-96515485D01*
X62682476Y-96563104D01*
X62587238Y-96610723D01*
X62492000Y-96705961D01*
X62444380Y-96848819D01*
X62444380Y-96944057D01*
X62492000Y-97086914D01*
X62539619Y-97134533D01*
X62444380Y-98039295D02*
X62444380Y-97563104D01*
X62920571Y-97515485D01*
X62872952Y-97563104D01*
X62825333Y-97658342D01*
X62825333Y-97896438D01*
X62872952Y-97991676D01*
X62920571Y-98039295D01*
X63015809Y-98086914D01*
X63253904Y-98086914D01*
X63349142Y-98039295D01*
X63396761Y-97991676D01*
X63444380Y-97896438D01*
X63444380Y-97658342D01*
X63396761Y-97563104D01*
X63349142Y-97515485D01*
X54154342Y-94226233D02*
X54201961Y-94178614D01*
X54249580Y-94035757D01*
X54249580Y-93940519D01*
X54201961Y-93797661D01*
X54106723Y-93702423D01*
X54011485Y-93654804D01*
X53821009Y-93607185D01*
X53678152Y-93607185D01*
X53487676Y-93654804D01*
X53392438Y-93702423D01*
X53297200Y-93797661D01*
X53249580Y-93940519D01*
X53249580Y-94035757D01*
X53297200Y-94178614D01*
X53344819Y-94226233D01*
X53582914Y-95083376D02*
X54249580Y-95083376D01*
X53201961Y-94845280D02*
X53916247Y-94607185D01*
X53916247Y-95226233D01*
X87669666Y-89168380D02*
X88145857Y-89168380D01*
X88145857Y-88168380D01*
X86812523Y-89168380D02*
X87383952Y-89168380D01*
X87098238Y-89168380D02*
X87098238Y-88168380D01*
X87193476Y-88311238D01*
X87288714Y-88406476D01*
X87383952Y-88454095D01*
X89498466Y-81779442D02*
X89546085Y-81827061D01*
X89688942Y-81874680D01*
X89784180Y-81874680D01*
X89927038Y-81827061D01*
X90022276Y-81731823D01*
X90069895Y-81636585D01*
X90117514Y-81446109D01*
X90117514Y-81303252D01*
X90069895Y-81112776D01*
X90022276Y-81017538D01*
X89927038Y-80922300D01*
X89784180Y-80874680D01*
X89688942Y-80874680D01*
X89546085Y-80922300D01*
X89498466Y-80969919D01*
X89165133Y-80874680D02*
X88546085Y-80874680D01*
X88879419Y-81255633D01*
X88736561Y-81255633D01*
X88641323Y-81303252D01*
X88593704Y-81350871D01*
X88546085Y-81446109D01*
X88546085Y-81684204D01*
X88593704Y-81779442D01*
X88641323Y-81827061D01*
X88736561Y-81874680D01*
X89022276Y-81874680D01*
X89117514Y-81827061D01*
X89165133Y-81779442D01*
X85256666Y-83866142D02*
X85304285Y-83913761D01*
X85447142Y-83961380D01*
X85542380Y-83961380D01*
X85685238Y-83913761D01*
X85780476Y-83818523D01*
X85828095Y-83723285D01*
X85875714Y-83532809D01*
X85875714Y-83389952D01*
X85828095Y-83199476D01*
X85780476Y-83104238D01*
X85685238Y-83009000D01*
X85542380Y-82961380D01*
X85447142Y-82961380D01*
X85304285Y-83009000D01*
X85256666Y-83056619D01*
X84875714Y-83056619D02*
X84828095Y-83009000D01*
X84732857Y-82961380D01*
X84494761Y-82961380D01*
X84399523Y-83009000D01*
X84351904Y-83056619D01*
X84304285Y-83151857D01*
X84304285Y-83247095D01*
X84351904Y-83389952D01*
X84923333Y-83961380D01*
X84304285Y-83961380D01*
X85510666Y-99233142D02*
X85558285Y-99280761D01*
X85701142Y-99328380D01*
X85796380Y-99328380D01*
X85939238Y-99280761D01*
X86034476Y-99185523D01*
X86082095Y-99090285D01*
X86129714Y-98899809D01*
X86129714Y-98756952D01*
X86082095Y-98566476D01*
X86034476Y-98471238D01*
X85939238Y-98376000D01*
X85796380Y-98328380D01*
X85701142Y-98328380D01*
X85558285Y-98376000D01*
X85510666Y-98423619D01*
X84558285Y-99328380D02*
X85129714Y-99328380D01*
X84844000Y-99328380D02*
X84844000Y-98328380D01*
X84939238Y-98471238D01*
X85034476Y-98566476D01*
X85129714Y-98614095D01*
X61552080Y-86542733D02*
X61075890Y-86209400D01*
X61552080Y-85971304D02*
X60552080Y-85971304D01*
X60552080Y-86352257D01*
X60599700Y-86447495D01*
X60647319Y-86495114D01*
X60742557Y-86542733D01*
X60885414Y-86542733D01*
X60980652Y-86495114D01*
X61028271Y-86447495D01*
X61075890Y-86352257D01*
X61075890Y-85971304D01*
X60980652Y-87114161D02*
X60933033Y-87018923D01*
X60885414Y-86971304D01*
X60790176Y-86923685D01*
X60742557Y-86923685D01*
X60647319Y-86971304D01*
X60599700Y-87018923D01*
X60552080Y-87114161D01*
X60552080Y-87304638D01*
X60599700Y-87399876D01*
X60647319Y-87447495D01*
X60742557Y-87495114D01*
X60790176Y-87495114D01*
X60885414Y-87447495D01*
X60933033Y-87399876D01*
X60980652Y-87304638D01*
X60980652Y-87114161D01*
X61028271Y-87018923D01*
X61075890Y-86971304D01*
X61171128Y-86923685D01*
X61361604Y-86923685D01*
X61456842Y-86971304D01*
X61504461Y-87018923D01*
X61552080Y-87114161D01*
X61552080Y-87304638D01*
X61504461Y-87399876D01*
X61456842Y-87447495D01*
X61361604Y-87495114D01*
X61171128Y-87495114D01*
X61075890Y-87447495D01*
X61028271Y-87399876D01*
X60980652Y-87304638D01*
X61552080Y-88752533D02*
X61075890Y-88419200D01*
X61552080Y-88181104D02*
X60552080Y-88181104D01*
X60552080Y-88562057D01*
X60599700Y-88657295D01*
X60647319Y-88704914D01*
X60742557Y-88752533D01*
X60885414Y-88752533D01*
X60980652Y-88704914D01*
X61028271Y-88657295D01*
X61075890Y-88562057D01*
X61075890Y-88181104D01*
X60552080Y-89085866D02*
X60552080Y-89752533D01*
X61552080Y-89323961D01*
X59520080Y-87698433D02*
X59043890Y-87365100D01*
X59520080Y-87127004D02*
X58520080Y-87127004D01*
X58520080Y-87507957D01*
X58567700Y-87603195D01*
X58615319Y-87650814D01*
X58710557Y-87698433D01*
X58853414Y-87698433D01*
X58948652Y-87650814D01*
X58996271Y-87603195D01*
X59043890Y-87507957D01*
X59043890Y-87127004D01*
X58520080Y-88555576D02*
X58520080Y-88365100D01*
X58567700Y-88269861D01*
X58615319Y-88222242D01*
X58758176Y-88127004D01*
X58948652Y-88079385D01*
X59329604Y-88079385D01*
X59424842Y-88127004D01*
X59472461Y-88174623D01*
X59520080Y-88269861D01*
X59520080Y-88460338D01*
X59472461Y-88555576D01*
X59424842Y-88603195D01*
X59329604Y-88650814D01*
X59091509Y-88650814D01*
X58996271Y-88603195D01*
X58948652Y-88555576D01*
X58901033Y-88460338D01*
X58901033Y-88269861D01*
X58948652Y-88174623D01*
X58996271Y-88127004D01*
X59091509Y-88079385D01*
X59507380Y-89793933D02*
X59031190Y-89460600D01*
X59507380Y-89222504D02*
X58507380Y-89222504D01*
X58507380Y-89603457D01*
X58555000Y-89698695D01*
X58602619Y-89746314D01*
X58697857Y-89793933D01*
X58840714Y-89793933D01*
X58935952Y-89746314D01*
X58983571Y-89698695D01*
X59031190Y-89603457D01*
X59031190Y-89222504D01*
X58507380Y-90698695D02*
X58507380Y-90222504D01*
X58983571Y-90174885D01*
X58935952Y-90222504D01*
X58888333Y-90317742D01*
X58888333Y-90555838D01*
X58935952Y-90651076D01*
X58983571Y-90698695D01*
X59078809Y-90746314D01*
X59316904Y-90746314D01*
X59412142Y-90698695D01*
X59459761Y-90651076D01*
X59507380Y-90555838D01*
X59507380Y-90317742D01*
X59459761Y-90222504D01*
X59412142Y-90174885D01*
X57538880Y-86288733D02*
X57062690Y-85955400D01*
X57538880Y-85717304D02*
X56538880Y-85717304D01*
X56538880Y-86098257D01*
X56586500Y-86193495D01*
X56634119Y-86241114D01*
X56729357Y-86288733D01*
X56872214Y-86288733D01*
X56967452Y-86241114D01*
X57015071Y-86193495D01*
X57062690Y-86098257D01*
X57062690Y-85717304D01*
X56872214Y-87145876D02*
X57538880Y-87145876D01*
X56491261Y-86907780D02*
X57205547Y-86669685D01*
X57205547Y-87288733D01*
X57538880Y-88501833D02*
X57062690Y-88168500D01*
X57538880Y-87930404D02*
X56538880Y-87930404D01*
X56538880Y-88311357D01*
X56586500Y-88406595D01*
X56634119Y-88454214D01*
X56729357Y-88501833D01*
X56872214Y-88501833D01*
X56967452Y-88454214D01*
X57015071Y-88406595D01*
X57062690Y-88311357D01*
X57062690Y-87930404D01*
X56538880Y-88835166D02*
X56538880Y-89454214D01*
X56919833Y-89120880D01*
X56919833Y-89263738D01*
X56967452Y-89358976D01*
X57015071Y-89406595D01*
X57110309Y-89454214D01*
X57348404Y-89454214D01*
X57443642Y-89406595D01*
X57491261Y-89358976D01*
X57538880Y-89263738D01*
X57538880Y-88978023D01*
X57491261Y-88882785D01*
X57443642Y-88835166D01*
X74604476Y-86183880D02*
X74937809Y-85707690D01*
X75175904Y-86183880D02*
X75175904Y-85183880D01*
X74794952Y-85183880D01*
X74699714Y-85231500D01*
X74652095Y-85279119D01*
X74604476Y-85374357D01*
X74604476Y-85517214D01*
X74652095Y-85612452D01*
X74699714Y-85660071D01*
X74794952Y-85707690D01*
X75175904Y-85707690D01*
X74175904Y-86183880D02*
X74175904Y-85183880D01*
X73604476Y-86183880D01*
X73604476Y-85183880D01*
X72604476Y-86183880D02*
X73175904Y-86183880D01*
X72890190Y-86183880D02*
X72890190Y-85183880D01*
X72985428Y-85326738D01*
X73080666Y-85421976D01*
X73175904Y-85469595D01*
X87161666Y-83961380D02*
X87495000Y-83485190D01*
X87733095Y-83961380D02*
X87733095Y-82961380D01*
X87352142Y-82961380D01*
X87256904Y-83009000D01*
X87209285Y-83056619D01*
X87161666Y-83151857D01*
X87161666Y-83294714D01*
X87209285Y-83389952D01*
X87256904Y-83437571D01*
X87352142Y-83485190D01*
X87733095Y-83485190D01*
X86209285Y-83961380D02*
X86780714Y-83961380D01*
X86495000Y-83961380D02*
X86495000Y-82961380D01*
X86590238Y-83104238D01*
X86685476Y-83199476D01*
X86780714Y-83247095D01*
X91312904Y-90454380D02*
X91312904Y-91263904D01*
X91265285Y-91359142D01*
X91217666Y-91406761D01*
X91122428Y-91454380D01*
X90931952Y-91454380D01*
X90836714Y-91406761D01*
X90789095Y-91359142D01*
X90741476Y-91263904D01*
X90741476Y-90454380D01*
X89741476Y-91454380D02*
X90312904Y-91454380D01*
X90027190Y-91454380D02*
X90027190Y-90454380D01*
X90122428Y-90597238D01*
X90217666Y-90692476D01*
X90312904Y-90740095D01*
%LPC*%
D13*
X92075000Y-92272000D03*
X92075000Y-89732000D03*
X92075000Y-87192000D03*
D14*
X92075000Y-84652000D03*
D13*
X53975000Y-79521200D03*
X53975000Y-82061200D03*
X53975000Y-84601200D03*
X53975000Y-87141200D03*
D14*
X53975000Y-89681200D03*
D15*
X77216000Y-98036380D03*
X74676000Y-98130360D03*
X72136000Y-98044000D03*
X69596000Y-98044000D03*
X67056000Y-98044000D03*
X79756000Y-90424000D03*
X77216000Y-90424000D03*
X74676000Y-90424000D03*
X67056000Y-90424000D03*
X69596000Y-90424000D03*
X72136000Y-90424000D03*
X77216000Y-87897380D03*
X74676000Y-87991360D03*
X72136000Y-87905000D03*
X69596000Y-87905000D03*
X67056000Y-87905000D03*
X79756000Y-80285000D03*
X77216000Y-80285000D03*
X74676000Y-80285000D03*
X67056000Y-80285000D03*
X69596000Y-80285000D03*
X72136000Y-80285000D03*
D16*
X92683700Y-98274200D03*
X92683700Y-96074200D03*
X90983700Y-96074200D03*
X90983700Y-98274200D03*
D17*
X74864700Y-93853300D03*
X74864700Y-94653300D03*
X74864700Y-95453300D03*
X74864700Y-96253300D03*
X73164700Y-93853300D03*
X73164700Y-96253300D03*
X73164700Y-94653300D03*
X73164700Y-95453300D03*
G36*
G01*
X79281000Y-96553500D02*
X80231000Y-96553500D01*
G75*
G02*
X80481000Y-96803500I0J-250000D01*
G01*
X80481000Y-97478500D01*
G75*
G02*
X80231000Y-97728500I-250000J0D01*
G01*
X79281000Y-97728500D01*
G75*
G02*
X79031000Y-97478500I0J250000D01*
G01*
X79031000Y-96803500D01*
G75*
G02*
X79281000Y-96553500I250000J0D01*
G01*
G37*
G36*
G01*
X79281000Y-94478500D02*
X80231000Y-94478500D01*
G75*
G02*
X80481000Y-94728500I0J-250000D01*
G01*
X80481000Y-95403500D01*
G75*
G02*
X80231000Y-95653500I-250000J0D01*
G01*
X79281000Y-95653500D01*
G75*
G02*
X79031000Y-95403500I0J250000D01*
G01*
X79031000Y-94728500D01*
G75*
G02*
X79281000Y-94478500I250000J0D01*
G01*
G37*
G36*
G01*
X81643200Y-97285200D02*
X82593200Y-97285200D01*
G75*
G02*
X82843200Y-97535200I0J-250000D01*
G01*
X82843200Y-98210200D01*
G75*
G02*
X82593200Y-98460200I-250000J0D01*
G01*
X81643200Y-98460200D01*
G75*
G02*
X81393200Y-98210200I0J250000D01*
G01*
X81393200Y-97535200D01*
G75*
G02*
X81643200Y-97285200I250000J0D01*
G01*
G37*
G36*
G01*
X81643200Y-95210200D02*
X82593200Y-95210200D01*
G75*
G02*
X82843200Y-95460200I0J-250000D01*
G01*
X82843200Y-96135200D01*
G75*
G02*
X82593200Y-96385200I-250000J0D01*
G01*
X81643200Y-96385200D01*
G75*
G02*
X81393200Y-96135200I0J250000D01*
G01*
X81393200Y-95460200D01*
G75*
G02*
X81643200Y-95210200I250000J0D01*
G01*
G37*
G36*
G01*
X82136000Y-91237800D02*
X81186000Y-91237800D01*
G75*
G02*
X80936000Y-90987800I0J250000D01*
G01*
X80936000Y-90312800D01*
G75*
G02*
X81186000Y-90062800I250000J0D01*
G01*
X82136000Y-90062800D01*
G75*
G02*
X82386000Y-90312800I0J-250000D01*
G01*
X82386000Y-90987800D01*
G75*
G02*
X82136000Y-91237800I-250000J0D01*
G01*
G37*
G36*
G01*
X82136000Y-93312800D02*
X81186000Y-93312800D01*
G75*
G02*
X80936000Y-93062800I0J250000D01*
G01*
X80936000Y-92387800D01*
G75*
G02*
X81186000Y-92137800I250000J0D01*
G01*
X82136000Y-92137800D01*
G75*
G02*
X82386000Y-92387800I0J-250000D01*
G01*
X82386000Y-93062800D01*
G75*
G02*
X82136000Y-93312800I-250000J0D01*
G01*
G37*
D18*
G36*
X59704000Y-97964500D02*
G01*
X56579000Y-97964500D01*
X56579000Y-97548000D01*
X55104000Y-97548000D01*
X55104000Y-96648000D01*
X56579000Y-96648000D01*
X56579000Y-96231500D01*
X59704000Y-96231500D01*
X59704000Y-97964500D01*
G37*
D19*
X55754000Y-95598000D03*
X55754000Y-98598000D03*
G36*
G01*
X60485000Y-98161500D02*
X61435000Y-98161500D01*
G75*
G02*
X61685000Y-98411500I0J-250000D01*
G01*
X61685000Y-99086500D01*
G75*
G02*
X61435000Y-99336500I-250000J0D01*
G01*
X60485000Y-99336500D01*
G75*
G02*
X60235000Y-99086500I0J250000D01*
G01*
X60235000Y-98411500D01*
G75*
G02*
X60485000Y-98161500I250000J0D01*
G01*
G37*
G36*
G01*
X60485000Y-96086500D02*
X61435000Y-96086500D01*
G75*
G02*
X61685000Y-96336500I0J-250000D01*
G01*
X61685000Y-97011500D01*
G75*
G02*
X61435000Y-97261500I-250000J0D01*
G01*
X60485000Y-97261500D01*
G75*
G02*
X60235000Y-97011500I0J250000D01*
G01*
X60235000Y-96336500D01*
G75*
G02*
X60485000Y-96086500I250000J0D01*
G01*
G37*
G36*
G01*
X53246000Y-98204500D02*
X54196000Y-98204500D01*
G75*
G02*
X54446000Y-98454500I0J-250000D01*
G01*
X54446000Y-99129500D01*
G75*
G02*
X54196000Y-99379500I-250000J0D01*
G01*
X53246000Y-99379500D01*
G75*
G02*
X52996000Y-99129500I0J250000D01*
G01*
X52996000Y-98454500D01*
G75*
G02*
X53246000Y-98204500I250000J0D01*
G01*
G37*
G36*
G01*
X53246000Y-96129500D02*
X54196000Y-96129500D01*
G75*
G02*
X54446000Y-96379500I0J-250000D01*
G01*
X54446000Y-97054500D01*
G75*
G02*
X54196000Y-97304500I-250000J0D01*
G01*
X53246000Y-97304500D01*
G75*
G02*
X52996000Y-97054500I0J250000D01*
G01*
X52996000Y-96379500D01*
G75*
G02*
X53246000Y-96129500I250000J0D01*
G01*
G37*
G36*
G01*
X89604001Y-87250000D02*
X88703999Y-87250000D01*
G75*
G02*
X88454000Y-87000001I0J249999D01*
G01*
X88454000Y-86349999D01*
G75*
G02*
X88703999Y-86100000I249999J0D01*
G01*
X89604001Y-86100000D01*
G75*
G02*
X89854000Y-86349999I0J-249999D01*
G01*
X89854000Y-87000001D01*
G75*
G02*
X89604001Y-87250000I-249999J0D01*
G01*
G37*
G36*
G01*
X89604001Y-89300000D02*
X88703999Y-89300000D01*
G75*
G02*
X88454000Y-89050001I0J249999D01*
G01*
X88454000Y-88399999D01*
G75*
G02*
X88703999Y-88150000I249999J0D01*
G01*
X89604001Y-88150000D01*
G75*
G02*
X89854000Y-88399999I0J-249999D01*
G01*
X89854000Y-89050001D01*
G75*
G02*
X89604001Y-89300000I-249999J0D01*
G01*
G37*
G36*
G01*
X89629000Y-83440000D02*
X88679000Y-83440000D01*
G75*
G02*
X88429000Y-83190000I0J250000D01*
G01*
X88429000Y-82515000D01*
G75*
G02*
X88679000Y-82265000I250000J0D01*
G01*
X89629000Y-82265000D01*
G75*
G02*
X89879000Y-82515000I0J-250000D01*
G01*
X89879000Y-83190000D01*
G75*
G02*
X89629000Y-83440000I-250000J0D01*
G01*
G37*
G36*
G01*
X89629000Y-85515000D02*
X88679000Y-85515000D01*
G75*
G02*
X88429000Y-85265000I0J250000D01*
G01*
X88429000Y-84590000D01*
G75*
G02*
X88679000Y-84340000I250000J0D01*
G01*
X89629000Y-84340000D01*
G75*
G02*
X89879000Y-84590000I0J-250000D01*
G01*
X89879000Y-85265000D01*
G75*
G02*
X89629000Y-85515000I-250000J0D01*
G01*
G37*
G36*
G01*
X85565000Y-85577500D02*
X84615000Y-85577500D01*
G75*
G02*
X84365000Y-85327500I0J250000D01*
G01*
X84365000Y-84652500D01*
G75*
G02*
X84615000Y-84402500I250000J0D01*
G01*
X85565000Y-84402500D01*
G75*
G02*
X85815000Y-84652500I0J-250000D01*
G01*
X85815000Y-85327500D01*
G75*
G02*
X85565000Y-85577500I-250000J0D01*
G01*
G37*
G36*
G01*
X85565000Y-87652500D02*
X84615000Y-87652500D01*
G75*
G02*
X84365000Y-87402500I0J250000D01*
G01*
X84365000Y-86727500D01*
G75*
G02*
X84615000Y-86477500I250000J0D01*
G01*
X85565000Y-86477500D01*
G75*
G02*
X85815000Y-86727500I0J-250000D01*
G01*
X85815000Y-87402500D01*
G75*
G02*
X85565000Y-87652500I-250000J0D01*
G01*
G37*
G36*
G01*
X87628400Y-98083500D02*
X87628400Y-99033500D01*
G75*
G02*
X87378400Y-99283500I-250000J0D01*
G01*
X86703400Y-99283500D01*
G75*
G02*
X86453400Y-99033500I0J250000D01*
G01*
X86453400Y-98083500D01*
G75*
G02*
X86703400Y-97833500I250000J0D01*
G01*
X87378400Y-97833500D01*
G75*
G02*
X87628400Y-98083500I0J-250000D01*
G01*
G37*
G36*
G01*
X89703400Y-98083500D02*
X89703400Y-99033500D01*
G75*
G02*
X89453400Y-99283500I-250000J0D01*
G01*
X88778400Y-99283500D01*
G75*
G02*
X88528400Y-99033500I0J250000D01*
G01*
X88528400Y-98083500D01*
G75*
G02*
X88778400Y-97833500I250000J0D01*
G01*
X89453400Y-97833500D01*
G75*
G02*
X89703400Y-98083500I0J-250000D01*
G01*
G37*
G36*
G01*
X61410001Y-79553000D02*
X60509999Y-79553000D01*
G75*
G02*
X60260000Y-79303001I0J249999D01*
G01*
X60260000Y-78602999D01*
G75*
G02*
X60509999Y-78353000I249999J0D01*
G01*
X61410001Y-78353000D01*
G75*
G02*
X61660000Y-78602999I0J-249999D01*
G01*
X61660000Y-79303001D01*
G75*
G02*
X61410001Y-79553000I-249999J0D01*
G01*
G37*
G36*
G01*
X61410001Y-81553000D02*
X60509999Y-81553000D01*
G75*
G02*
X60260000Y-81303001I0J249999D01*
G01*
X60260000Y-80602999D01*
G75*
G02*
X60509999Y-80353000I249999J0D01*
G01*
X61410001Y-80353000D01*
G75*
G02*
X61660000Y-80602999I0J-249999D01*
G01*
X61660000Y-81303001D01*
G75*
G02*
X61410001Y-81553000I-249999J0D01*
G01*
G37*
G36*
G01*
X61410001Y-83347000D02*
X60509999Y-83347000D01*
G75*
G02*
X60260000Y-83097001I0J249999D01*
G01*
X60260000Y-82396999D01*
G75*
G02*
X60509999Y-82147000I249999J0D01*
G01*
X61410001Y-82147000D01*
G75*
G02*
X61660000Y-82396999I0J-249999D01*
G01*
X61660000Y-83097001D01*
G75*
G02*
X61410001Y-83347000I-249999J0D01*
G01*
G37*
G36*
G01*
X61410001Y-85347000D02*
X60509999Y-85347000D01*
G75*
G02*
X60260000Y-85097001I0J249999D01*
G01*
X60260000Y-84396999D01*
G75*
G02*
X60509999Y-84147000I249999J0D01*
G01*
X61410001Y-84147000D01*
G75*
G02*
X61660000Y-84396999I0J-249999D01*
G01*
X61660000Y-85097001D01*
G75*
G02*
X61410001Y-85347000I-249999J0D01*
G01*
G37*
G36*
G01*
X59505001Y-79553000D02*
X58604999Y-79553000D01*
G75*
G02*
X58355000Y-79303001I0J249999D01*
G01*
X58355000Y-78602999D01*
G75*
G02*
X58604999Y-78353000I249999J0D01*
G01*
X59505001Y-78353000D01*
G75*
G02*
X59755000Y-78602999I0J-249999D01*
G01*
X59755000Y-79303001D01*
G75*
G02*
X59505001Y-79553000I-249999J0D01*
G01*
G37*
G36*
G01*
X59505001Y-81553000D02*
X58604999Y-81553000D01*
G75*
G02*
X58355000Y-81303001I0J249999D01*
G01*
X58355000Y-80602999D01*
G75*
G02*
X58604999Y-80353000I249999J0D01*
G01*
X59505001Y-80353000D01*
G75*
G02*
X59755000Y-80602999I0J-249999D01*
G01*
X59755000Y-81303001D01*
G75*
G02*
X59505001Y-81553000I-249999J0D01*
G01*
G37*
G36*
G01*
X59505001Y-84490000D02*
X58604999Y-84490000D01*
G75*
G02*
X58355000Y-84240001I0J249999D01*
G01*
X58355000Y-83539999D01*
G75*
G02*
X58604999Y-83290000I249999J0D01*
G01*
X59505001Y-83290000D01*
G75*
G02*
X59755000Y-83539999I0J-249999D01*
G01*
X59755000Y-84240001D01*
G75*
G02*
X59505001Y-84490000I-249999J0D01*
G01*
G37*
G36*
G01*
X59505001Y-86490000D02*
X58604999Y-86490000D01*
G75*
G02*
X58355000Y-86240001I0J249999D01*
G01*
X58355000Y-85539999D01*
G75*
G02*
X58604999Y-85290000I249999J0D01*
G01*
X59505001Y-85290000D01*
G75*
G02*
X59755000Y-85539999I0J-249999D01*
G01*
X59755000Y-86240001D01*
G75*
G02*
X59505001Y-86490000I-249999J0D01*
G01*
G37*
G36*
G01*
X57473001Y-79537000D02*
X56572999Y-79537000D01*
G75*
G02*
X56323000Y-79287001I0J249999D01*
G01*
X56323000Y-78586999D01*
G75*
G02*
X56572999Y-78337000I249999J0D01*
G01*
X57473001Y-78337000D01*
G75*
G02*
X57723000Y-78586999I0J-249999D01*
G01*
X57723000Y-79287001D01*
G75*
G02*
X57473001Y-79537000I-249999J0D01*
G01*
G37*
G36*
G01*
X57473001Y-81537000D02*
X56572999Y-81537000D01*
G75*
G02*
X56323000Y-81287001I0J249999D01*
G01*
X56323000Y-80586999D01*
G75*
G02*
X56572999Y-80337000I249999J0D01*
G01*
X57473001Y-80337000D01*
G75*
G02*
X57723000Y-80586999I0J-249999D01*
G01*
X57723000Y-81287001D01*
G75*
G02*
X57473001Y-81537000I-249999J0D01*
G01*
G37*
G36*
G01*
X57473001Y-83363000D02*
X56572999Y-83363000D01*
G75*
G02*
X56323000Y-83113001I0J249999D01*
G01*
X56323000Y-82412999D01*
G75*
G02*
X56572999Y-82163000I249999J0D01*
G01*
X57473001Y-82163000D01*
G75*
G02*
X57723000Y-82412999I0J-249999D01*
G01*
X57723000Y-83113001D01*
G75*
G02*
X57473001Y-83363000I-249999J0D01*
G01*
G37*
G36*
G01*
X57473001Y-85363000D02*
X56572999Y-85363000D01*
G75*
G02*
X56323000Y-85113001I0J249999D01*
G01*
X56323000Y-84412999D01*
G75*
G02*
X56572999Y-84163000I249999J0D01*
G01*
X57473001Y-84163000D01*
G75*
G02*
X57723000Y-84412999I0J-249999D01*
G01*
X57723000Y-85113001D01*
G75*
G02*
X57473001Y-85363000I-249999J0D01*
G01*
G37*
D17*
X77850100Y-83286900D03*
X77850100Y-84086900D03*
X77850100Y-84886900D03*
X77850100Y-85686900D03*
X76150100Y-83286900D03*
X76150100Y-85686900D03*
X76150100Y-84086900D03*
X76150100Y-84886900D03*
G36*
G01*
X87572001Y-85665000D02*
X86671999Y-85665000D01*
G75*
G02*
X86422000Y-85415001I0J249999D01*
G01*
X86422000Y-84714999D01*
G75*
G02*
X86671999Y-84465000I249999J0D01*
G01*
X87572001Y-84465000D01*
G75*
G02*
X87822000Y-84714999I0J-249999D01*
G01*
X87822000Y-85415001D01*
G75*
G02*
X87572001Y-85665000I-249999J0D01*
G01*
G37*
G36*
G01*
X87572001Y-87665000D02*
X86671999Y-87665000D01*
G75*
G02*
X86422000Y-87415001I0J249999D01*
G01*
X86422000Y-86714999D01*
G75*
G02*
X86671999Y-86465000I249999J0D01*
G01*
X87572001Y-86465000D01*
G75*
G02*
X87822000Y-86714999I0J-249999D01*
G01*
X87822000Y-87415001D01*
G75*
G02*
X87572001Y-87665000I-249999J0D01*
G01*
G37*
D20*
X86487000Y-92780000D03*
G36*
G01*
X84587000Y-95605000D02*
X84587000Y-94930000D01*
G75*
G02*
X84637000Y-94880000I50000J0D01*
G01*
X84737000Y-94880000D01*
G75*
G02*
X84787000Y-94930000I0J-50000D01*
G01*
X84787000Y-95605000D01*
G75*
G02*
X84737000Y-95655000I-50000J0D01*
G01*
X84637000Y-95655000D01*
G75*
G02*
X84587000Y-95605000I0J50000D01*
G01*
G37*
G36*
G01*
X84987000Y-95605000D02*
X84987000Y-94930000D01*
G75*
G02*
X85037000Y-94880000I50000J0D01*
G01*
X85137000Y-94880000D01*
G75*
G02*
X85187000Y-94930000I0J-50000D01*
G01*
X85187000Y-95605000D01*
G75*
G02*
X85137000Y-95655000I-50000J0D01*
G01*
X85037000Y-95655000D01*
G75*
G02*
X84987000Y-95605000I0J50000D01*
G01*
G37*
G36*
G01*
X85387000Y-95605000D02*
X85387000Y-94930000D01*
G75*
G02*
X85437000Y-94880000I50000J0D01*
G01*
X85537000Y-94880000D01*
G75*
G02*
X85587000Y-94930000I0J-50000D01*
G01*
X85587000Y-95605000D01*
G75*
G02*
X85537000Y-95655000I-50000J0D01*
G01*
X85437000Y-95655000D01*
G75*
G02*
X85387000Y-95605000I0J50000D01*
G01*
G37*
G36*
G01*
X85787000Y-95605000D02*
X85787000Y-94930000D01*
G75*
G02*
X85837000Y-94880000I50000J0D01*
G01*
X85937000Y-94880000D01*
G75*
G02*
X85987000Y-94930000I0J-50000D01*
G01*
X85987000Y-95605000D01*
G75*
G02*
X85937000Y-95655000I-50000J0D01*
G01*
X85837000Y-95655000D01*
G75*
G02*
X85787000Y-95605000I0J50000D01*
G01*
G37*
G36*
G01*
X86187000Y-95605000D02*
X86187000Y-94930000D01*
G75*
G02*
X86237000Y-94880000I50000J0D01*
G01*
X86337000Y-94880000D01*
G75*
G02*
X86387000Y-94930000I0J-50000D01*
G01*
X86387000Y-95605000D01*
G75*
G02*
X86337000Y-95655000I-50000J0D01*
G01*
X86237000Y-95655000D01*
G75*
G02*
X86187000Y-95605000I0J50000D01*
G01*
G37*
G36*
G01*
X86587000Y-95605000D02*
X86587000Y-94930000D01*
G75*
G02*
X86637000Y-94880000I50000J0D01*
G01*
X86737000Y-94880000D01*
G75*
G02*
X86787000Y-94930000I0J-50000D01*
G01*
X86787000Y-95605000D01*
G75*
G02*
X86737000Y-95655000I-50000J0D01*
G01*
X86637000Y-95655000D01*
G75*
G02*
X86587000Y-95605000I0J50000D01*
G01*
G37*
G36*
G01*
X86987000Y-95605000D02*
X86987000Y-94930000D01*
G75*
G02*
X87037000Y-94880000I50000J0D01*
G01*
X87137000Y-94880000D01*
G75*
G02*
X87187000Y-94930000I0J-50000D01*
G01*
X87187000Y-95605000D01*
G75*
G02*
X87137000Y-95655000I-50000J0D01*
G01*
X87037000Y-95655000D01*
G75*
G02*
X86987000Y-95605000I0J50000D01*
G01*
G37*
G36*
G01*
X87387000Y-95605000D02*
X87387000Y-94930000D01*
G75*
G02*
X87437000Y-94880000I50000J0D01*
G01*
X87537000Y-94880000D01*
G75*
G02*
X87587000Y-94930000I0J-50000D01*
G01*
X87587000Y-95605000D01*
G75*
G02*
X87537000Y-95655000I-50000J0D01*
G01*
X87437000Y-95655000D01*
G75*
G02*
X87387000Y-95605000I0J50000D01*
G01*
G37*
G36*
G01*
X87787000Y-95605000D02*
X87787000Y-94930000D01*
G75*
G02*
X87837000Y-94880000I50000J0D01*
G01*
X87937000Y-94880000D01*
G75*
G02*
X87987000Y-94930000I0J-50000D01*
G01*
X87987000Y-95605000D01*
G75*
G02*
X87937000Y-95655000I-50000J0D01*
G01*
X87837000Y-95655000D01*
G75*
G02*
X87787000Y-95605000I0J50000D01*
G01*
G37*
G36*
G01*
X88187000Y-95605000D02*
X88187000Y-94930000D01*
G75*
G02*
X88237000Y-94880000I50000J0D01*
G01*
X88337000Y-94880000D01*
G75*
G02*
X88387000Y-94930000I0J-50000D01*
G01*
X88387000Y-95605000D01*
G75*
G02*
X88337000Y-95655000I-50000J0D01*
G01*
X88237000Y-95655000D01*
G75*
G02*
X88187000Y-95605000I0J50000D01*
G01*
G37*
G36*
G01*
X88587000Y-94630000D02*
X88587000Y-94530000D01*
G75*
G02*
X88637000Y-94480000I50000J0D01*
G01*
X89312000Y-94480000D01*
G75*
G02*
X89362000Y-94530000I0J-50000D01*
G01*
X89362000Y-94630000D01*
G75*
G02*
X89312000Y-94680000I-50000J0D01*
G01*
X88637000Y-94680000D01*
G75*
G02*
X88587000Y-94630000I0J50000D01*
G01*
G37*
G36*
G01*
X88587000Y-94230000D02*
X88587000Y-94130000D01*
G75*
G02*
X88637000Y-94080000I50000J0D01*
G01*
X89312000Y-94080000D01*
G75*
G02*
X89362000Y-94130000I0J-50000D01*
G01*
X89362000Y-94230000D01*
G75*
G02*
X89312000Y-94280000I-50000J0D01*
G01*
X88637000Y-94280000D01*
G75*
G02*
X88587000Y-94230000I0J50000D01*
G01*
G37*
G36*
G01*
X88587000Y-93830000D02*
X88587000Y-93730000D01*
G75*
G02*
X88637000Y-93680000I50000J0D01*
G01*
X89312000Y-93680000D01*
G75*
G02*
X89362000Y-93730000I0J-50000D01*
G01*
X89362000Y-93830000D01*
G75*
G02*
X89312000Y-93880000I-50000J0D01*
G01*
X88637000Y-93880000D01*
G75*
G02*
X88587000Y-93830000I0J50000D01*
G01*
G37*
G36*
G01*
X88587000Y-93430000D02*
X88587000Y-93330000D01*
G75*
G02*
X88637000Y-93280000I50000J0D01*
G01*
X89312000Y-93280000D01*
G75*
G02*
X89362000Y-93330000I0J-50000D01*
G01*
X89362000Y-93430000D01*
G75*
G02*
X89312000Y-93480000I-50000J0D01*
G01*
X88637000Y-93480000D01*
G75*
G02*
X88587000Y-93430000I0J50000D01*
G01*
G37*
G36*
G01*
X88587000Y-93030000D02*
X88587000Y-92930000D01*
G75*
G02*
X88637000Y-92880000I50000J0D01*
G01*
X89312000Y-92880000D01*
G75*
G02*
X89362000Y-92930000I0J-50000D01*
G01*
X89362000Y-93030000D01*
G75*
G02*
X89312000Y-93080000I-50000J0D01*
G01*
X88637000Y-93080000D01*
G75*
G02*
X88587000Y-93030000I0J50000D01*
G01*
G37*
G36*
G01*
X88587000Y-92630000D02*
X88587000Y-92530000D01*
G75*
G02*
X88637000Y-92480000I50000J0D01*
G01*
X89312000Y-92480000D01*
G75*
G02*
X89362000Y-92530000I0J-50000D01*
G01*
X89362000Y-92630000D01*
G75*
G02*
X89312000Y-92680000I-50000J0D01*
G01*
X88637000Y-92680000D01*
G75*
G02*
X88587000Y-92630000I0J50000D01*
G01*
G37*
G36*
G01*
X88587000Y-92230000D02*
X88587000Y-92130000D01*
G75*
G02*
X88637000Y-92080000I50000J0D01*
G01*
X89312000Y-92080000D01*
G75*
G02*
X89362000Y-92130000I0J-50000D01*
G01*
X89362000Y-92230000D01*
G75*
G02*
X89312000Y-92280000I-50000J0D01*
G01*
X88637000Y-92280000D01*
G75*
G02*
X88587000Y-92230000I0J50000D01*
G01*
G37*
G36*
G01*
X88587000Y-91830000D02*
X88587000Y-91730000D01*
G75*
G02*
X88637000Y-91680000I50000J0D01*
G01*
X89312000Y-91680000D01*
G75*
G02*
X89362000Y-91730000I0J-50000D01*
G01*
X89362000Y-91830000D01*
G75*
G02*
X89312000Y-91880000I-50000J0D01*
G01*
X88637000Y-91880000D01*
G75*
G02*
X88587000Y-91830000I0J50000D01*
G01*
G37*
G36*
G01*
X88587000Y-91430000D02*
X88587000Y-91330000D01*
G75*
G02*
X88637000Y-91280000I50000J0D01*
G01*
X89312000Y-91280000D01*
G75*
G02*
X89362000Y-91330000I0J-50000D01*
G01*
X89362000Y-91430000D01*
G75*
G02*
X89312000Y-91480000I-50000J0D01*
G01*
X88637000Y-91480000D01*
G75*
G02*
X88587000Y-91430000I0J50000D01*
G01*
G37*
G36*
G01*
X88587000Y-91030000D02*
X88587000Y-90930000D01*
G75*
G02*
X88637000Y-90880000I50000J0D01*
G01*
X89312000Y-90880000D01*
G75*
G02*
X89362000Y-90930000I0J-50000D01*
G01*
X89362000Y-91030000D01*
G75*
G02*
X89312000Y-91080000I-50000J0D01*
G01*
X88637000Y-91080000D01*
G75*
G02*
X88587000Y-91030000I0J50000D01*
G01*
G37*
G36*
G01*
X88187000Y-90630000D02*
X88187000Y-89955000D01*
G75*
G02*
X88237000Y-89905000I50000J0D01*
G01*
X88337000Y-89905000D01*
G75*
G02*
X88387000Y-89955000I0J-50000D01*
G01*
X88387000Y-90630000D01*
G75*
G02*
X88337000Y-90680000I-50000J0D01*
G01*
X88237000Y-90680000D01*
G75*
G02*
X88187000Y-90630000I0J50000D01*
G01*
G37*
G36*
G01*
X87787000Y-90630000D02*
X87787000Y-89955000D01*
G75*
G02*
X87837000Y-89905000I50000J0D01*
G01*
X87937000Y-89905000D01*
G75*
G02*
X87987000Y-89955000I0J-50000D01*
G01*
X87987000Y-90630000D01*
G75*
G02*
X87937000Y-90680000I-50000J0D01*
G01*
X87837000Y-90680000D01*
G75*
G02*
X87787000Y-90630000I0J50000D01*
G01*
G37*
G36*
G01*
X87387000Y-90630000D02*
X87387000Y-89955000D01*
G75*
G02*
X87437000Y-89905000I50000J0D01*
G01*
X87537000Y-89905000D01*
G75*
G02*
X87587000Y-89955000I0J-50000D01*
G01*
X87587000Y-90630000D01*
G75*
G02*
X87537000Y-90680000I-50000J0D01*
G01*
X87437000Y-90680000D01*
G75*
G02*
X87387000Y-90630000I0J50000D01*
G01*
G37*
G36*
G01*
X86987000Y-90630000D02*
X86987000Y-89955000D01*
G75*
G02*
X87037000Y-89905000I50000J0D01*
G01*
X87137000Y-89905000D01*
G75*
G02*
X87187000Y-89955000I0J-50000D01*
G01*
X87187000Y-90630000D01*
G75*
G02*
X87137000Y-90680000I-50000J0D01*
G01*
X87037000Y-90680000D01*
G75*
G02*
X86987000Y-90630000I0J50000D01*
G01*
G37*
G36*
G01*
X86587000Y-90630000D02*
X86587000Y-89955000D01*
G75*
G02*
X86637000Y-89905000I50000J0D01*
G01*
X86737000Y-89905000D01*
G75*
G02*
X86787000Y-89955000I0J-50000D01*
G01*
X86787000Y-90630000D01*
G75*
G02*
X86737000Y-90680000I-50000J0D01*
G01*
X86637000Y-90680000D01*
G75*
G02*
X86587000Y-90630000I0J50000D01*
G01*
G37*
G36*
G01*
X86187000Y-90630000D02*
X86187000Y-89955000D01*
G75*
G02*
X86237000Y-89905000I50000J0D01*
G01*
X86337000Y-89905000D01*
G75*
G02*
X86387000Y-89955000I0J-50000D01*
G01*
X86387000Y-90630000D01*
G75*
G02*
X86337000Y-90680000I-50000J0D01*
G01*
X86237000Y-90680000D01*
G75*
G02*
X86187000Y-90630000I0J50000D01*
G01*
G37*
G36*
G01*
X85787000Y-90630000D02*
X85787000Y-89955000D01*
G75*
G02*
X85837000Y-89905000I50000J0D01*
G01*
X85937000Y-89905000D01*
G75*
G02*
X85987000Y-89955000I0J-50000D01*
G01*
X85987000Y-90630000D01*
G75*
G02*
X85937000Y-90680000I-50000J0D01*
G01*
X85837000Y-90680000D01*
G75*
G02*
X85787000Y-90630000I0J50000D01*
G01*
G37*
G36*
G01*
X85387000Y-90630000D02*
X85387000Y-89955000D01*
G75*
G02*
X85437000Y-89905000I50000J0D01*
G01*
X85537000Y-89905000D01*
G75*
G02*
X85587000Y-89955000I0J-50000D01*
G01*
X85587000Y-90630000D01*
G75*
G02*
X85537000Y-90680000I-50000J0D01*
G01*
X85437000Y-90680000D01*
G75*
G02*
X85387000Y-90630000I0J50000D01*
G01*
G37*
G36*
G01*
X84987000Y-90630000D02*
X84987000Y-89955000D01*
G75*
G02*
X85037000Y-89905000I50000J0D01*
G01*
X85137000Y-89905000D01*
G75*
G02*
X85187000Y-89955000I0J-50000D01*
G01*
X85187000Y-90630000D01*
G75*
G02*
X85137000Y-90680000I-50000J0D01*
G01*
X85037000Y-90680000D01*
G75*
G02*
X84987000Y-90630000I0J50000D01*
G01*
G37*
G36*
G01*
X84587000Y-90630000D02*
X84587000Y-89955000D01*
G75*
G02*
X84637000Y-89905000I50000J0D01*
G01*
X84737000Y-89905000D01*
G75*
G02*
X84787000Y-89955000I0J-50000D01*
G01*
X84787000Y-90630000D01*
G75*
G02*
X84737000Y-90680000I-50000J0D01*
G01*
X84637000Y-90680000D01*
G75*
G02*
X84587000Y-90630000I0J50000D01*
G01*
G37*
G36*
G01*
X83612000Y-91030000D02*
X83612000Y-90930000D01*
G75*
G02*
X83662000Y-90880000I50000J0D01*
G01*
X84337000Y-90880000D01*
G75*
G02*
X84387000Y-90930000I0J-50000D01*
G01*
X84387000Y-91030000D01*
G75*
G02*
X84337000Y-91080000I-50000J0D01*
G01*
X83662000Y-91080000D01*
G75*
G02*
X83612000Y-91030000I0J50000D01*
G01*
G37*
G36*
G01*
X83612000Y-91430000D02*
X83612000Y-91330000D01*
G75*
G02*
X83662000Y-91280000I50000J0D01*
G01*
X84337000Y-91280000D01*
G75*
G02*
X84387000Y-91330000I0J-50000D01*
G01*
X84387000Y-91430000D01*
G75*
G02*
X84337000Y-91480000I-50000J0D01*
G01*
X83662000Y-91480000D01*
G75*
G02*
X83612000Y-91430000I0J50000D01*
G01*
G37*
G36*
G01*
X83612000Y-91830000D02*
X83612000Y-91730000D01*
G75*
G02*
X83662000Y-91680000I50000J0D01*
G01*
X84337000Y-91680000D01*
G75*
G02*
X84387000Y-91730000I0J-50000D01*
G01*
X84387000Y-91830000D01*
G75*
G02*
X84337000Y-91880000I-50000J0D01*
G01*
X83662000Y-91880000D01*
G75*
G02*
X83612000Y-91830000I0J50000D01*
G01*
G37*
G36*
G01*
X83612000Y-92230000D02*
X83612000Y-92130000D01*
G75*
G02*
X83662000Y-92080000I50000J0D01*
G01*
X84337000Y-92080000D01*
G75*
G02*
X84387000Y-92130000I0J-50000D01*
G01*
X84387000Y-92230000D01*
G75*
G02*
X84337000Y-92280000I-50000J0D01*
G01*
X83662000Y-92280000D01*
G75*
G02*
X83612000Y-92230000I0J50000D01*
G01*
G37*
G36*
G01*
X83612000Y-92630000D02*
X83612000Y-92530000D01*
G75*
G02*
X83662000Y-92480000I50000J0D01*
G01*
X84337000Y-92480000D01*
G75*
G02*
X84387000Y-92530000I0J-50000D01*
G01*
X84387000Y-92630000D01*
G75*
G02*
X84337000Y-92680000I-50000J0D01*
G01*
X83662000Y-92680000D01*
G75*
G02*
X83612000Y-92630000I0J50000D01*
G01*
G37*
G36*
G01*
X83612000Y-93030000D02*
X83612000Y-92930000D01*
G75*
G02*
X83662000Y-92880000I50000J0D01*
G01*
X84337000Y-92880000D01*
G75*
G02*
X84387000Y-92930000I0J-50000D01*
G01*
X84387000Y-93030000D01*
G75*
G02*
X84337000Y-93080000I-50000J0D01*
G01*
X83662000Y-93080000D01*
G75*
G02*
X83612000Y-93030000I0J50000D01*
G01*
G37*
G36*
G01*
X83612000Y-93430000D02*
X83612000Y-93330000D01*
G75*
G02*
X83662000Y-93280000I50000J0D01*
G01*
X84337000Y-93280000D01*
G75*
G02*
X84387000Y-93330000I0J-50000D01*
G01*
X84387000Y-93430000D01*
G75*
G02*
X84337000Y-93480000I-50000J0D01*
G01*
X83662000Y-93480000D01*
G75*
G02*
X83612000Y-93430000I0J50000D01*
G01*
G37*
G36*
G01*
X83612000Y-93830000D02*
X83612000Y-93730000D01*
G75*
G02*
X83662000Y-93680000I50000J0D01*
G01*
X84337000Y-93680000D01*
G75*
G02*
X84387000Y-93730000I0J-50000D01*
G01*
X84387000Y-93830000D01*
G75*
G02*
X84337000Y-93880000I-50000J0D01*
G01*
X83662000Y-93880000D01*
G75*
G02*
X83612000Y-93830000I0J50000D01*
G01*
G37*
G36*
G01*
X83612000Y-94230000D02*
X83612000Y-94130000D01*
G75*
G02*
X83662000Y-94080000I50000J0D01*
G01*
X84337000Y-94080000D01*
G75*
G02*
X84387000Y-94130000I0J-50000D01*
G01*
X84387000Y-94230000D01*
G75*
G02*
X84337000Y-94280000I-50000J0D01*
G01*
X83662000Y-94280000D01*
G75*
G02*
X83612000Y-94230000I0J50000D01*
G01*
G37*
G36*
G01*
X83612000Y-94630000D02*
X83612000Y-94530000D01*
G75*
G02*
X83662000Y-94480000I50000J0D01*
G01*
X84337000Y-94480000D01*
G75*
G02*
X84387000Y-94530000I0J-50000D01*
G01*
X84387000Y-94630000D01*
G75*
G02*
X84337000Y-94680000I-50000J0D01*
G01*
X83662000Y-94680000D01*
G75*
G02*
X83612000Y-94630000I0J50000D01*
G01*
G37*
M02*
